#N canvas 21 105 1857 629 16;
#X declare -lib else;
#X declare -lib hcs;
#X declare -lib cyclone;
#N canvas 0 0 2256 1422 set_original 0;
#X msg 27 285 60 64 67 72 76 67 72 76 60 64 67 72 76 67 72 76 60 62 69 74 77 69 74 77 60 62 69 74 77 69 74 77 59 62 67 74 77 67 74 77 59 62 67 74 77 67 74 77 60 64 67 72 76 67 72 76 60 64 67 72 76 67 72 76 60 64 69 76 81 69 76 81 60 64 69 76 81 69 76 81 60 62 66 69 74 66 69 74 60 62 66 69 74 66 69 74 59 62 67 74 79 67 74 79 59 62 67 74 79 67 74 79;
#X obj 18 257 loadbang;
#X obj 60 1029 array set original;
#X obj 60 1057 array define original 112;
#X text 106 518 inverted;
#X msg 99 540 76 72 69 64 60 69 64 60 76 72 69 64 60 69 64 60 76 74 67 62 59 67 62 59 76 74 67 62 59 67 62 59 77 74 69 62 59 69 62 59 77 74 69 62 59 69 62 59 76 72 69 64 60 69 64 60 76 72 69 64 60 69 64 60 76 72 67 60 55 67 60 55 76 72 67 60 55 67 60 55 76 74 70 67 62 70 67 62 76 74 70 67 62 70 67 62 77 74 69 62 57 69 62 57 77 74 69 62 57 69 62 57;
#X msg 190 897 79 74 67 79 74 67 62 59 79 74 67 79 74 67 62 59 74 69 66 74 69 66 62 60 74 69 66 74 69 66 62 60 81 76 69 81 76 69 64 60 81 76 69 81 76 69 64 60 76 72 67 76 72 67 64 60 76 72 67 76 72 67 64 60 77 74 67 77 74 67 62 59 77 74 67 77 74 67 62 59 77 74 69 77 74 69 62 60 77 74 69 77 74 69 62 60 76 72 67 76 72 67 64 60 76 72 67 76 72 67 64 60;
#X text 226 866 reversed;
#X msg 121 744 57 62 69 57 62 69 74 77 57 62 69 57 62 69 74 77 62 67 70 62 67 70 74 76 62 67 70 62 67 70 74 76 55 60 67 55 60 67 72 76 55 60 67 55 60 67 72 76 60 64 69 60 64 69 72 76 60 64 69 60 64 69 72 76 59 62 69 59 62 69 74 77 59 62 69 59 62 69 74 77 59 62 67 59 62 67 74 76 59 62 67 59 62 67 74 76 60 64 69 60 64 69 72 76 60 64 69 60 64 69 72 76;
#X text 131 724 reversed-inverted;
#X obj 22 29 inlet;
#X floatatom 37 103 5 0 0 0 - - - 0;
#X obj 688 100 sel 0 1 2 3;
#X msg 688 143 symbol original;
#X msg 707 170 symbol mirrored;
#X msg 726 200 symbol retrograde-mirrored;
#X msg 744 227 symbol retrograde;
#X msg 1246 375 43 50 59 57 59 50 59 50 43 50 59 57 59 50 59 50 43 52 60 59 60 52 60 52 43 52 60 59 60 52 60 52 43 54 60 59 60 54 60 54 43 54 60 59 60 54 60 54 43 55 59 57 59 55 59 55 43 55 59 57 59 55 59 54 43 55 59 57 59 55 54 55 52 55 54 55 47 50 49 47 49 55 57 55 57 55 57 55 49 55 57 55 57 55 57 55 54 57 62 61 62 57 55 57 54 57 55 57 50 54 52 50;
#X text 1262 348 cello;
#X obj 1246 529 else/iterate;
#X obj 1246 558 + 5;
#X obj 1246 499 t l b;
#X obj 1246 587 else/group 112;
#X msg 1393 527 clear;
#X msg 1079 638 69 76 81 80 81 84 81 76 69 76 81 80 81 84 81 76 69 72 76 77 68 77 76 74 72 76 80 81 64 74 72 71 69 72 76 77 68 77 76 74 72 76 80 81 64 74 72 71 69 72 68 69 65 74 68 69 64 72 68 69 62 72 71 69 68 64 68 71 76 80 83 86 77 86 83 80 76 74 72 71 72 69 72 76 81 84 88 77 79 82 79 76 72 70 69 67 69 65 69 72 74 77 81 72 71 68 71 74 76 80 83 74;
#X text 1141 614 flute;
#X msg 1248 200 48 67 72 76 52 67 72 76 55 67 72 74 43 71 74 79 50 69 74 79 53 69 74 77 57 69 74 76 45 72 76 81 52 71 76 81 64 71 76 79 57 72 76 77 59 67 74 77 60 67 74 76 52 67 72 76 54 69 72 74 56 64 71 74 57 64 71 72 48 64 69 72 50 65 69 70 52 60 67 70 53 60 67 69 52 60 65 69 50 62 65 71 48 64 67 72 55 62 67 72 43 62 67 71 55 60 67 71 43 67 71 77;
#X text 1263 156 bwv924;
#X msg 871 916 59 62 67 74 79 67 74 79 59 62 67 74 79 67 74 79 59 60 64 67 72 64 67 72 59 60 64 67 72 64 67 72 57 60 64 67 72 64 67 72 57 60 64 67 72 64 67 72 50 57 62 66 72 62 66 72 50 57 62 66 72 62 66 72 55 59 62 67 71 62 67 71 55 59 62 67 71 62 67 71 55 58 64 67 73 64 67 73 55 58 64 67 73 64 67 73 53 57 62 69 74 62 69 74 53 57 62 69 74 62 69 74;
#X text 886 888 frag2;
#X text 868 1053 frag3;
#X msg 872 1080 55 59 62 67 71 62 67 71 55 59 62 67 71 62 67 71 55 58 64 67 73 64 67 73 55 58 64 67 73 64 67 73 53 57 62 69 74 62 69 74 53 57 62 69 74 62 69 74 53 56 62 65 71 62 65 71 53 56 62 65 71 62 65 71 52 55 60 67 72 60 67 72 52 55 60 67 72 60 67 72 52 53 57 60 65 57 60 65 52 53 57 60 65 57 60 65 50 53 57 60 65 57 60 65 50 53 57 60 65 57 60 65;
#X text 1499 782 frag4;
#X text 1503 941 frag5;
#X text 1505 1105 frag6;
#X msg 1503 809 43 50 55 59 65 55 59 65 43 50 55 59 65 55 59 65 48 52 55 60 64 55 60 64 48 52 55 60 64 55 60 64 48 55 58 60 64 58 60 64 48 55 58 60 64 58 60 64 41 53 57 60 64 57 60 64 41 53 57 60 64 57 60 64 42 48 57 60 63 57 60 63 42 48 57 60 63 57 60 63 44 53 59 60 62 59 60 62 44 53 59 60 62 59 60 62 43 53 55 59 62 55 59 62 43 53 55 59 62 55 59 62;
#X msg 1507 968 41 53 57 60 64 57 60 64 41 53 57 60 64 57 60 64 42 48 57 60 63 57 60 63 42 48 57 60 63 57 60 63 44 53 59 60 62 59 60 62 44 53 59 60 62 59 60 62 43 53 55 59 62 55 59 62 43 53 55 59 62 55 59 62 43 52 55 60 64 55 60 64 43 52 55 60 64 55 60 64 43 50 55 60 65 55 60 65 43 50 55 60 65 55 60 65 43 50 55 59 65 55 59 65 43 50 55 59 65 55 59 65;
#X msg 1509 1132 43 51 57 60 66 57 60 66 43 51 57 60 66 57 60 66 43 52 55 60 67 55 60 67 43 52 55 60 67 55 60 67 43 50 55 60 65 55 60 65 43 50 55 60 65 55 60 65 43 50 55 59 65 55 59 65 43 50 55 59 65 55 59 65 36 48 55 58 64 55 58 64 36 48 55 58 64 55 58 64 36 48 53 57 60 65 60 57 60 57 53 57 53 50 53 50 36 47 67 71 74 77 74 71 74 71 67 71 62 65 64 62;
#X obj 22 150 sel 0 1 2 3 4 5, f 18;
#X obj 22 55 % 6;
#X connect 0 0 2 0;
#X connect 1 0 0 0;
#X connect 5 0 2 0;
#X connect 6 0 2 0;
#X connect 8 0 2 0;
#X connect 10 0 39 0;
#X connect 12 0 13 0;
#X connect 12 1 14 0;
#X connect 12 2 15 0;
#X connect 12 3 16 0;
#X connect 17 0 21 0;
#X connect 19 0 20 0;
#X connect 20 0 22 0;
#X connect 21 0 19 0;
#X connect 21 1 23 0;
#X connect 22 0 2 0;
#X connect 23 0 22 0;
#X connect 24 0 2 0;
#X connect 28 0 2 0;
#X connect 31 0 2 0;
#X connect 35 0 2 0;
#X connect 36 0 2 0;
#X connect 37 0 2 0;
#X connect 38 0 0 0;
#X connect 38 1 28 0;
#X connect 38 2 31 0;
#X connect 38 3 35 0;
#X connect 38 4 36 0;
#X connect 38 5 37 0;
#X connect 39 0 11 0;
#X connect 39 0 12 0;
#X connect 39 0 38 0;
#X restore 1004 784 pd set_original;
#X obj 1005 657 declare -lib else;
#N canvas 123 246 722 759 scramble_indexes 0;
#X obj 35 217 else/scramble;
#X obj 35 188 else/group 112;
#X msg 123 160 clear;
#X text 95 34 scramble indexes;
#X obj 35 34 inlet;
#X obj 35 268 array define \$0-scrambled_indexes 112;
#X obj 35 242 array set \$0-scrambled_indexes;
#X obj 35 136 else/loop 0 111;
#X obj 51 72 r init;
#X obj 137 77 bng 20 250 50 0 empty empty empty 0 -10 0 12 #fcfcfc #000000 #000000;
#X obj 35 110 t b b, f 13;
#X connect 0 0 6 0;
#X connect 1 0 0 0;
#X connect 2 0 1 0;
#X connect 4 0 10 0;
#X connect 7 0 1 0;
#X connect 8 0 10 0;
#X connect 9 0 10 0;
#X connect 10 0 7 0;
#X connect 10 1 2 0;
#X restore 17 1203 pd scramble_indexes;
#X obj 17 1123 bng 20 250 50 0 empty empty empty 0 -10 0 12 #fcfcfc #000000 #000000;
#N canvas 220 241 1714 975 random_note_generator 0;
#X obj 92 50 inlet;
#X obj 676 21 array define \$0-scale 7;
#X obj 676 96 array set \$0-scale;
#X msg 676 70 0 2 4 5 7 9 11;
#X obj 676 45 loadbang;
#X obj 92 307 t f f;
#X obj 92 352 % 7;
#X obj 92 397 tabread \$0-scale;
#X obj 209 331 div 7;
#X obj 209 430 * 12;
#X obj 92 454 +;
#X obj 92 509 + 24;
#X obj 92 546 outlet;
#X obj 92 94 random 100;
#X obj 92 158 t b;
#X obj 676 134 array define \$0-extra 2;
#X obj 676 162 loadbang;
#X msg 676 187 6 10;
#X obj 676 212 array set \$0-extra;
#X obj 424 287 random 7;
#X obj 518 266 random 2;
#X obj 424 242 t b b;
#X obj 518 298 tabread \$0-extra;
#X obj 424 322 * 12;
#X obj 424 357 +;
#X obj 501 182 t b;
#X obj 501 217 random 80;
#N canvas 0 50 450 250 (subpatch) 0;
#X array \$0-quantilator 50 float 3;
#A 0 0 0.000247561 0.00196879 0.00657929 0.0153806 0.0295085 0.0498866 0.0771887 0.111809 0.153841 0.203075 0.258991 0.320782 0.38737 0.457447 0.529509 0.601913 0.672928 0.740793 0.803777 0.860239 0.90868 0.947798 0.97653 0.994092 1 0.994092 0.97653 0.947797 0.90868 0.860239 0.803777 0.740793 0.672927 0.601912 0.529509 0.457446 0.38737 0.320782 0.258991 0.203075 0.153841 0.111809 0.0771886 0.0498866 0.0295085 0.0153806 0.00657929 0.00196879 0.00024756;
#X coords 0 1 50 0 200 140 1 0 0;
#X restore 788 344 graph;
#X obj 634 484 bng 20 250 50 0 empty empty empty 0 -10 0 12 #fcfcfc #000000 #000000;
#X obj 634 618 t f f;
#X obj 634 829 tabwrite \$0-quantilator;
#X obj 634 509 t b b;
#X obj 681 546 else/pi;
#X obj 634 676 *;
#X obj 634 705 sin;
#X obj 634 435 loadbang;
#X obj 296 707 bng 24 250 50 0 empty empty empty 0 -12 0 16 #fcfcfc #000000 #000000;
#X obj 296 805 array quantile \$0-quantilator;
#X floatatom 296 834 5 0 0 0 - - - 0;
#X obj 634 589 else/loop 0 49;
#X obj 634 647 / 50;
#X obj 296 736 random 100;
#X obj 296 765 / 99;
#N canvas 0 50 450 250 (subpatch) 0;
#X array \$0-quantilator2 50 float 3;
#A 0 0 1 0 0 0 0 6 7 0 9 0 0 0 13 0 15 0 17 18 19 0 0 22 23 24 25 26 0 28 29 30 31 32 33 34 35 0 37 38 39 0 0 0 0 0 0 0 0 0 0;
#X coords 0 50 50 0 200 140 1 0 0;
#X restore 591 995 graph;
#X obj 296 862 t f f;
#X obj 297 921 tabwrite \$0-quantilator2;
#X msg 293 632 50;
#X obj 293 661 until;
#X msg 853 936 const 0;
#X obj 853 965 s \$0-quantilator2;
#X obj 92 192 random 100;
#X obj 92 271 array quantile \$0-quantilator;
#X obj 92 231 / 99;
#X obj 634 785 pow 3;
#X obj 92 129 moses 95;
#X obj 424 153 moses 98;
#X connect 0 0 13 0;
#X connect 3 0 2 0;
#X connect 4 0 3 0;
#X connect 5 0 6 0;
#X connect 5 1 8 0;
#X connect 6 0 7 0;
#X connect 7 0 10 0;
#X connect 8 0 9 0;
#X connect 9 0 10 1;
#X connect 10 0 11 0;
#X connect 11 0 12 0;
#X connect 13 0 54 0;
#X connect 14 0 50 0;
#X connect 16 0 17 0;
#X connect 17 0 18 0;
#X connect 19 0 23 0;
#X connect 20 0 22 0;
#X connect 21 0 19 0;
#X connect 21 1 20 0;
#X connect 22 0 24 1;
#X connect 23 0 24 0;
#X connect 24 0 11 0;
#X connect 25 0 26 0;
#X connect 26 0 11 0;
#X connect 28 0 31 0;
#X connect 29 0 40 0;
#X connect 29 1 30 1;
#X connect 31 0 39 0;
#X connect 31 1 32 0;
#X connect 32 0 33 1;
#X connect 33 0 34 0;
#X connect 34 0 53 0;
#X connect 35 0 28 0;
#X connect 36 0 41 0;
#X connect 37 0 38 0;
#X connect 38 0 44 0;
#X connect 39 0 29 0;
#X connect 40 0 33 0;
#X connect 41 0 42 0;
#X connect 42 0 37 0;
#X connect 44 0 45 0;
#X connect 44 1 45 1;
#X connect 46 0 47 0;
#X connect 47 0 36 0;
#X connect 48 0 49 0;
#X connect 50 0 52 0;
#X connect 51 0 5 0;
#X connect 52 0 51 0;
#X connect 53 0 30 0;
#X connect 54 0 14 0;
#X connect 54 1 55 0;
#X connect 55 0 21 0;
#X connect 55 1 25 0;
#X restore 160 1443 pd random_note_generator;
#X obj 128 494 else/count 0 111;
#X obj 76 345 tgl 20 0 empty \$0-play_sequence play\ sequence 0 -10 0 12 #fcfcfc #000000 #000000 0 1;
#X msg 227 404 reset;
#X obj 128 830 sel 111;
#X obj 128 994 else/count 0 111;
#X obj 128 1044 t f f;
#X obj 17 1095 sel 111;
#X obj 745 831 array set visualizer;
#X obj 745 796 array get original;
#X obj 745 762 bng 20 250 50 0 empty empty empty 0 -10 0 12 #fcfcfc #000000 #000000;
#X obj 249 1576 tabwrite visualizer;
#X obj 264 1170 tgl 20 0 empty empty empty 0 -10 0 12 #fcfcfc #000000 #000000 0 1;
#X obj 178 1077 tabread \$0-scrambled_indexes;
#X obj 117 1252 else/router 2 0;
#X obj 525 1467 tabread original;
#X floatatom 305 389 5 0 0 0 - - - 0;
#X obj 128 463 metro 220;
#X text 742 740 set starting sequence;
#X obj 501 462 s init;
#X obj 447 337 bng 100 250 50 0 empty \$0-bang_init INIT 0 -10 0 12 #fcfcfc #000000 #000000;
#X obj 777 764 r init;
#N canvas 0 0 1920 975 initialization 0;
#X obj 283 214 else/loop 0 111;
#X obj 283 412 oscformat note;
#X obj 283 181 bng 20 250 50 0 empty empty empty 0 -10 0 12 #fcfcfc #000000 #000000;
#X obj 727 269 receive redball_move;
#X obj 726 565 oscformat redball;
#X obj 727 317 unpack 0 0;
#X obj 380 293 tabread visualizer;
#X obj 380 322 ib.mtoy;
#X obj 844 353 ib.mtoy;
#X obj 44 144 r new_position_xy;
#X obj 283 437 s \$0-osc-message;
#X obj 726 593 s \$0-osc-message;
#X obj 554 37 cnv 20 280 160 empty empty OSC-CONNECTION 20 12 0 12 #e0e0e0 #404040 0;
#X msg 571 76 connect localhost 12345;
#X msg 584 105 disconnect;
#X obj 575 163 netsend -b -u;
#X obj 607 132 r \$0-osc-message;
#X obj 330 158 oscformat setup;
#X msg 330 131 112;
#X obj 283 52 t b b;
#X obj 283 77 delay 500;
#X obj 283 102 t b b;
#X obj 283 27 r \$0-oscinit;
#X obj 330 186 s \$0-osc-message;
#X text 385 383 x y_start y_end active;
#X obj 283 269 t f f;
#X obj 89 245 ib.mtoy;
#X obj 135 213 ib.mtoy;
#X text 750 292 x_end y_end;
#X obj 727 348 t f f;
#X obj 727 423 t f f;
#X obj 727 537 pack 0 0 0 0;
#X obj 767 460 tabread visualizer;
#X obj 766 493 ib.mtoy;
#X obj 727 386 expr if($f1 == 0 \, 111 \, $f1 - 1);
#X obj 44 179 unpack 0 0 0 0;
#X obj 44 284 pack 0 0 0 0, f 14;
#X msg 283 384 \$1 \$2 \$3 0 \$4;
#X obj 283 354 pack 0 0 0 0, f 15;
#X obj 425 501 r \$0-n_iteration;
#X obj 425 533 oscformat iteration;
#X obj 425 565 s \$0-osc-message;
#X connect 0 0 25 0;
#X connect 1 0 10 0;
#X connect 2 0 0 0;
#X connect 3 0 5 0;
#X connect 4 0 11 0;
#X connect 5 0 29 0;
#X connect 5 1 8 0;
#X connect 6 0 7 0;
#X connect 7 0 38 2;
#X connect 8 0 31 3;
#X connect 9 0 35 0;
#X connect 13 0 15 0;
#X connect 14 0 15 0;
#X connect 16 0 15 0;
#X connect 17 0 23 0;
#X connect 18 0 17 0;
#X connect 19 0 20 0;
#X connect 19 1 13 0;
#X connect 20 0 21 0;
#X connect 21 0 2 0;
#X connect 21 1 18 0;
#X connect 22 0 19 0;
#X connect 25 0 38 0;
#X connect 25 1 6 0;
#X connect 26 0 36 1;
#X connect 27 0 36 2;
#X connect 29 0 34 0;
#X connect 29 1 31 2;
#X connect 30 0 31 0;
#X connect 30 1 32 0;
#X connect 31 0 4 0;
#X connect 32 0 33 0;
#X connect 33 0 31 1;
#X connect 34 0 30 0;
#X connect 35 0 36 0;
#X connect 35 1 26 0;
#X connect 35 2 27 0;
#X connect 35 3 36 3;
#X connect 36 0 37 0;
#X connect 37 0 1 0;
#X connect 38 0 37 0;
#X connect 39 0 40 0;
#X connect 40 0 41 0;
#X restore 1005 709 pd initialization;
#X obj 453 785 pack 0 0, f 12;
#X obj 453 752 pipe f f 500;
#X obj 1005 683 declare -lib hcs;
#X obj 453 811 send redball_move;
#X obj 128 529 t f f f;
#X obj 572 622 tabread visualizer;
#X obj 227 371 bng 20 250 50 0 empty empty empty 0 -10 0 12 #fcfcfc #000000 #000000;
#X obj 572 655 int;
#X obj 160 1809 s new_position_xy;
#X obj 447 442 t b b;
#X obj 317 1696 r \$0-latency;
#X obj 570 721 r \$0-latency;
#X obj 603 466 s \$0-latency;
#X obj 447 489 s \$0-oscinit;
#X obj 317 527 nbx 3 25 -1e+37 1e+37 0 0 empty empty CURRENT-INDEX 0 -10 0 12 #00ff04 #000000 #000000 0 256;
#X obj 609 1541 tabread visualizer;
#X obj 525 1276 t f f f, f 9;
#X obj 238 1540 tabread visualizer;
#X obj 160 1411 t b f f, f 10;
#X obj 227 339 r init;
#X obj 160 1774 pack 0 0 0 0, f 16;
#X msg 160 1662 \$2 \$3 \$1 \$4;
#X obj 160 1616 pack 0 0 0 1;
#X obj 525 1588 pack 0 0 0 0, f 13;
#X obj 160 1733 pipe f f f f 500;
#X floatatom 332 43 5 0 0 2 LATENCY \$0-fdb_latency \$0-g_latency 0;
#N canvas 134 140 1666 748 MIDI_SEND 0;
#X obj 285 449 noteout 1;
#X obj 285 424 makenote 50 250;
#X obj 114 268 ctlout 64 1;
#X msg 166 218 127;
#X msg 114 212 0;
#X obj 166 179 delay 200;
#X obj 114 22 inlet index;
#X obj 284 204 inlet note;
#X obj 114 67 sel 0;
#X obj 284 233 t f b;
#X obj 387 12 r \$0-minmax_vel;
#X obj 387 37 unpack 0 0;
#X floatatom 433 262 5 0 0 0 - - - 0;
#X floatatom 505 262 5 0 0 0 - - - 0;
#X msg 621 122 40;
#X msg 674 122 60;
#X obj 621 15 loadbang;
#X obj 621 58 t b b;
#X obj 621 164 pack 0 0;
#X obj 621 219 s \$0-fdb_minmax_vel;
#X msg 621 189 set \$1 \$2;
#X msg 394 71 set \$1;
#X msg 467 74 set \$1;
#X obj 358 387 + 40;
#X obj 433 290 swap;
#X obj 433 319 -;
#X obj 358 358 cyclone/drunk 25 5;
#X connect 1 0 0 0;
#X connect 1 1 0 1;
#X connect 3 0 2 0;
#X connect 4 0 2 0;
#X connect 5 0 3 0;
#X connect 6 0 8 0;
#X connect 7 0 9 0;
#X connect 8 0 5 0;
#X connect 8 0 4 0;
#X connect 9 0 1 0;
#X connect 9 1 26 0;
#X connect 10 0 11 0;
#X connect 11 0 12 0;
#X connect 11 0 21 0;
#X connect 11 1 13 0;
#X connect 11 1 22 0;
#X connect 12 0 24 0;
#X connect 12 0 23 1;
#X connect 13 0 24 1;
#X connect 14 0 18 0;
#X connect 14 0 12 0;
#X connect 15 0 18 1;
#X connect 15 0 13 0;
#X connect 16 0 17 0;
#X connect 17 0 14 0;
#X connect 17 1 15 0;
#X connect 18 0 20 0;
#X connect 20 0 19 0;
#X connect 21 0 14 0;
#X connect 22 0 15 0;
#X connect 23 0 1 1;
#X connect 24 0 25 0;
#X connect 24 1 25 1;
#X connect 25 0 26 1;
#X connect 26 0 23 0;
#X restore 455 692 pd MIDI_SEND;
#X obj 76 370 sel 1 0;
#X obj 76 395 f 1;
#X obj 128 418 f 0;
#N canvas 572 320 1290 989 check_neighbors 0;
#X obj 395 157 tabread visualizer;
#X obj 164 46 inlet generated;
#X obj 395 50 inlet index;
#X obj 395 104 - 1;
#X obj 427 104 + 1;
#X obj 266 226 ||;
#X obj 222 176 ==;
#X obj 284 151 ==;
#X obj 395 74 t f f;
#X obj 427 132 tabread visualizer;
#X obj 164 71 t f f f, f 17;
#X obj 164 315 outlet good;
#X obj 266 335 outlet repeat;
#X obj 164 275 else/router 2 0;
#X obj 266 309 t b;
#X connect 0 0 6 1;
#X connect 1 0 10 0;
#X connect 2 0 8 0;
#X connect 3 0 0 0;
#X connect 4 0 9 0;
#X connect 5 0 13 1;
#X connect 6 0 5 0;
#X connect 7 0 5 1;
#X connect 8 0 3 0;
#X connect 8 1 4 0;
#X connect 9 0 7 1;
#X connect 10 0 13 0;
#X connect 10 1 6 0;
#X connect 10 2 7 0;
#X connect 13 0 11 0;
#X connect 13 1 14 0;
#X connect 14 0 12 0;
#X restore 160 1506 pd check_neighbors;
#N canvas 558 111 636 613 check_neighbors_inverse 0;
#X obj 22 24 inlet value;
#X obj 200 24 inlet index;
#X obj 200 219 t f f, f 8;
#X obj 200 258 - 1;
#X obj 277 258 + 1;
#X obj 200 351 tabread visualizer;
#X obj 277 314 tabread visualizer;
#X obj 22 219 t f f f, f 16;
#X obj 100 338 ==;
#X obj 22 375 ==;
#X obj 220 525 s $-new_neighbor;
#X obj 200 283 t f f;
#X obj 277 283 t f f;
#X obj 297 461 f;
#X obj 220 461 f;
#X obj 22 406 sel 1;
#X obj 100 406 sel 1;
#X obj 179 578 outlet original;
#X obj 298 491 print neighbor_from_original;
#X obj 200 184 spigot;
#X obj 200 53 t f f f, f 10;
#X obj 248 92 > 0;
#X obj 297 99 < 111;
#X obj 248 121 &&;
#X connect 0 0 7 0;
#X connect 1 0 20 0;
#X connect 2 0 3 0;
#X connect 2 1 4 0;
#X connect 3 0 11 0;
#X connect 4 0 12 0;
#X connect 5 0 9 1;
#X connect 6 0 8 1;
#X connect 7 0 9 0;
#X connect 7 1 8 0;
#X connect 7 2 17 0;
#X connect 8 0 16 0;
#X connect 9 0 15 0;
#X connect 11 0 5 0;
#X connect 11 1 14 1;
#X connect 12 0 6 0;
#X connect 12 1 13 1;
#X connect 13 0 10 0;
#X connect 13 0 18 0;
#X connect 14 0 10 0;
#X connect 14 0 18 0;
#X connect 15 0 14 0;
#X connect 16 0 13 0;
#X connect 19 0 2 0;
#X connect 20 0 19 0;
#X connect 20 1 21 0;
#X connect 20 2 22 0;
#X connect 21 0 23 0;
#X connect 22 0 23 1;
#X connect 23 0 19 1;
#X restore 525 1505 pd check_neighbors_inverse;
#X obj 176 1350 r $-new_neighbor;
#X obj 155 872 r \$0-change_note;
#X obj 1005 633 declare -lib cyclone;
#X obj 20 121 hsl 596 80 0 111 0 0 \$0-nothing \$0-moveIndex empty -2 -10 0 12 #ffffff #ff0400 #000000 0 1;
#X obj 317 557 s \$0-moveIndex;
#N canvas 0 50 450 250 (subpatch) 0;
#X array visualizer 112 float 3;
#A 0 59 62 67 74 79 67 74 79 59 62 67 74 79 67 74 79 59 60 64 67 72 64 67 72 59 60 64 67 72 64 67 72 57 60 64 67 72 64 67 72 57 60 64 67 72 64 67 72 50 57 62 66 72 62 66 72 50 57 62 66 72 62 66 72 55 59 62 67 71 62 67 71 55 59 62 67 71 62 67 71 55 58 64 67 73 64 67 73 55 58 64 67 73 64 67 73 53 57 62 69 74 62 69 74 53 57 62 69 74 62 69 74;
#X coords 0 127 112 0 600 80 1 0 0;
#X restore 20 121 graph;
#X msg 328 440 0;
#X obj 345 1114 r init;
#X obj 345 1169 f 0;
#X obj 76 418 pipe 1;
#X obj 264 1195 t f f;
#X obj 294 1316 s \$0-sel_sequence;
#X obj 1004 749 r \$0-sel_sequence;
#X obj 152 1313 print sel_seq;
#X obj 294 1237 sel 1;
#X obj 345 1137 t b b b;
#X obj 19 30 bng 40 250 50 0 \$0-bang_init \$0-empty00 INIT 0 -10 0 12 #fcfcfc #000000 #000000;
#X obj 83 30 tgl 40 0 \$0-play_sequence \$0-empty01 PLAY/STOP 0 -10 0 12 #00faff #606060 #000000 0 1;
#X obj 838 228 tgl 20 0 empty \$0-play_sequence empty 0 -10 0 12 #fcfcfc #000000 #000000 0 1;
#X symbolatom 838 335 10 0 0 0 - - \$0-status_bar 0;
#X obj 838 256 sel 1 0;
#X msg 838 285 symbol playing...;
#X msg 862 309 symbol stopped;
#X listbox 132 77 12 0 0 0 time \$0-chrono \$0-empty00102 24;
#X obj 654 220 bng 20 250 50 0 empty empty empty 0 -10 0 12 #fcfcfc #000000 #000000;
#X obj 631 256 else/chrono -h;
#X obj 631 291 s \$0-chrono;
#X obj 679 219 r init;
#X floatatom 696 336 5 0 0 0 - \$0-g_latency - 0;
#X msg 696 360 set \$1;
#X msg 603 391 0;
#X obj 603 337 loadbang;
#X obj 617 427 s \$0-fdb_latency;
#X listbox 401 43 10 0 0 2 MIN/MAX\ VELOCITY \$0-fdb_minmax_vel \$0-minmax_vel 0;
#X obj 639 39 nbx 3 32 -1e+37 1e+37 0 0 \$0-empty5475364 \$0-moveIndex note\ number 0 -10 0 24 #00ff04 #000000 #000000 0 256;
#X obj 112 614 sel 0;
#X obj 55 705 else/count 1 1000;
#X floatatom 33 746 5 0 0 0 - - - 0;
#X obj 640 102 nbx 3 32 -1e+37 1e+37 0 0 \$0-empty54753 \$0-n_iteration iteration 0 -10 0 24 #00ff04 #000000 #000000 0 256;
#X obj 33 785 s \$0-n_iteration;
#X obj 133 35 cnv 20 140 30 empty empty empty 20 12 0 12 #00faff #404040 0;
#X symbolatom 133 34 10 0 0 0 - \$0-status_bar \$0-empty002 24;
#X msg 56 594 reset;
#X obj 23 564 r init;
#X obj 1029 403 bng 20 250 50 0 empty empty empty 0 -10 0 12 #fcfcfc #000000 #000000;
#X obj 1060 407 tgl 20 0 empty empty empty 0 -10 0 12 #fcfcfc #000000 #000000 0 1;
#X obj 1017 465 else/chrono -t 0 5;
#X obj 1122 540 bng 20 250 50 0 empty empty empty 0 -10 0 12 #fcfcfc #000000 #000000;
#X obj 1028 566 print;
#X obj 992 512 else/separate :;
#X obj 992 537 list split 1;
#X text 1015 377 countdown init;
#X obj 17 633 f 0;
#N canvas 433 225 816 591 MIDI_RECEIVE 0;
#X obj 82 234 keyup;
#X obj 82 269 sel 32;
#X obj 185 50 notein;
#X obj 185 81 stripnote;
#X obj 185 358 s \$0-change_note;
#X text 175 20 receive midi push;
#X obj 185 260 t b b;
#X obj 247 260 delay 500;
#X obj 185 302 bng 40 250 50 0 empty empty empty 0 -10 0 12 #fcfcfc #000000 #000000;
#X obj 334 75 else/note 0 16 DejaVu\ Sans\ Mono empty 7 0 0 0 0 255 255 255 0 0 48: init \, 72: play/stop \, 60: change_notes;
#X obj 185 125 sel 60 48 72, f 54;
#X obj 364 260 t b b;
#X obj 426 260 delay 500;
#X obj 543 260 t b b;
#X obj 603 260 delay 500;
#X obj 364 359 s \$0-bang_init;
#X obj 543 359 s \$0-play_sequence;
#X obj 86 168 print midi_rcv;
#X obj 364 302 bng 40 250 50 0 empty empty empty 0 -10 0 12 #fcfcfc #000000 #000000;
#X obj 543 302 bng 40 250 50 0 empty empty empty 0 -10 0 12 #fcfcfc #000000 #000000;
#X obj 185 231 cyclone/onebang 1;
#X obj 364 231 cyclone/onebang 1;
#X obj 543 231 cyclone/onebang 1;
#X connect 0 0 1 0;
#X connect 1 0 8 0;
#X connect 2 0 3 0;
#X connect 2 1 3 1;
#X connect 3 0 10 0;
#X connect 3 0 17 0;
#X connect 6 0 8 0;
#X connect 6 1 7 0;
#X connect 7 0 20 1;
#X connect 8 0 4 0;
#X connect 10 0 20 0;
#X connect 10 1 21 0;
#X connect 10 2 22 0;
#X connect 11 0 18 0;
#X connect 11 1 12 0;
#X connect 12 0 21 1;
#X connect 13 0 19 0;
#X connect 13 1 14 0;
#X connect 14 0 22 1;
#X connect 18 0 15 0;
#X connect 19 0 16 0;
#X connect 20 0 6 0;
#X connect 21 0 11 0;
#X connect 22 0 13 0;
#X restore 707 921 pd MIDI_RECEIVE;
#X text 698 895 MIDI RECEIVE COMM;
#X obj 294 1281 else/count 0 5;
#X obj 128 923 f 16;
#X obj 128 952 until;
#X connect 3 0 2 0;
#X connect 4 0 57 0;
#X connect 5 0 31 0;
#X connect 5 0 41 0;
#X connect 6 0 54 0;
#X connect 7 0 5 0;
#X connect 7 0 9 0;
#X connect 8 0 115 0;
#X connect 9 0 10 0;
#X connect 10 0 11 0;
#X connect 10 1 17 0;
#X connect 11 0 3 0;
#X connect 11 0 16 0;
#X connect 13 0 12 0;
#X connect 14 0 13 0;
#X connect 16 0 69 0;
#X connect 17 0 18 0;
#X connect 18 0 45 0;
#X connect 18 1 43 0;
#X connect 19 0 58 0;
#X connect 20 0 21 1;
#X connect 21 0 5 0;
#X connect 24 0 36 0;
#X connect 25 0 13 0;
#X connect 27 0 30 0;
#X connect 28 0 27 0;
#X connect 28 1 27 1;
#X connect 31 0 8 0;
#X connect 31 0 94 0;
#X connect 31 1 28 0;
#X connect 31 1 53 0;
#X connect 31 2 32 0;
#X connect 32 0 34 0;
#X connect 33 0 7 0;
#X connect 34 0 28 1;
#X connect 34 0 53 1;
#X connect 36 0 40 0;
#X connect 36 1 23 0;
#X connect 37 0 51 4;
#X connect 38 0 28 2;
#X connect 41 0 63 0;
#X connect 42 0 50 2;
#X connect 43 0 19 0;
#X connect 43 1 15 1;
#X connect 43 1 50 1;
#X connect 43 1 58 1;
#X connect 43 2 42 0;
#X connect 44 0 49 2;
#X connect 45 0 4 0;
#X connect 45 1 15 1;
#X connect 45 1 49 1;
#X connect 45 1 57 1;
#X connect 45 2 44 0;
#X connect 46 0 33 0;
#X connect 47 0 35 0;
#X connect 48 0 51 0;
#X connect 49 0 48 0;
#X connect 50 0 48 0;
#X connect 51 0 47 0;
#X connect 51 1 47 1;
#X connect 51 2 47 2;
#X connect 51 3 47 3;
#X connect 54 0 55 0;
#X connect 54 1 56 0;
#X connect 55 0 68 0;
#X connect 56 0 21 0;
#X connect 57 0 15 0;
#X connect 57 0 49 0;
#X connect 57 1 4 0;
#X connect 58 0 15 0;
#X connect 58 0 50 0;
#X connect 59 0 45 0;
#X connect 60 0 115 0;
#X connect 65 0 5 0;
#X connect 66 0 74 0;
#X connect 67 0 16 0;
#X connect 67 0 114 0;
#X connect 68 0 21 0;
#X connect 69 0 18 1;
#X connect 69 1 73 0;
#X connect 71 0 0 0;
#X connect 73 0 114 0;
#X connect 74 0 67 0;
#X connect 77 0 79 0;
#X connect 77 0 84 0;
#X connect 79 0 80 0;
#X connect 79 1 81 0;
#X connect 80 0 78 0;
#X connect 81 0 78 0;
#X connect 83 0 84 0;
#X connect 84 0 85 0;
#X connect 86 0 84 0;
#X connect 87 0 88 0;
#X connect 87 0 39 0;
#X connect 88 0 89 0;
#X connect 89 0 39 0;
#X connect 89 0 91 0;
#X connect 90 0 89 0;
#X connect 94 0 95 0;
#X connect 95 0 96 0;
#X connect 96 0 98 0;
#X connect 101 0 95 0;
#X connect 102 0 101 0;
#X connect 102 0 111 0;
#X connect 103 0 105 0;
#X connect 104 0 105 0;
#X connect 105 0 108 0;
#X connect 105 1 106 0;
#X connect 106 0 104 0;
#X connect 108 0 109 0;
#X connect 109 1 107 0;
#X connect 111 0 96 0;
#X connect 114 0 70 0;
#X connect 114 0 72 0;
#X connect 115 0 116 0;
#X connect 116 0 9 0;
#X coords 0 -1 1 1 800 200 2 10 10;
