#N canvas 458 170 747 503 12;
#X declare -lib hcs;
#X obj 85 74 inlet;
#X obj 85 195 outlet;
#X obj 85 161 expr $f2 - $f1;
#X obj 85 131 *;
#X obj 85 106 / 128;
#X obj 132 106 hcs/screensize;
#X obj 132 77 loadbang;
#X obj 259 49 declare -lib hcs;
#X connect 0 0 4 0;
#X connect 2 0 1 0;
#X connect 3 0 2 0;
#X connect 4 0 3 0;
#X connect 5 1 3 1;
#X connect 5 1 2 1;
#X connect 6 0 5 0;
