#N canvas 458 170 1011 503 12;
#X declare -lib hcs;
#X obj 12 41 inlet;
#X obj 12 212 outlet;
#X obj 12 178 expr $f2 - $f1, f 21;
#X obj 12 154 *;
#X obj 61 70 hcs/screensize;
#X obj 61 41 loadbang;
#X obj 12 5 declare -lib hcs;
#X obj 12 121 clip 0 1;
#X obj 232 16 / 128;
#X obj 12 96 cyclone/scale 12 120 0 1;
#X connect 0 0 9 0;
#X connect 2 0 1 0;
#X connect 3 0 2 0;
#X connect 4 1 3 1;
#X connect 4 1 2 1;
#X connect 5 0 4 0;
#X connect 7 0 3 0;
#X connect 9 0 7 0;
