#N canvas 68 51 1185 781 16;
#X declare -lib else;
#X declare -lib hcs;
#X declare -lib cyclone;
#X obj 1005 648 declare -lib else;
#N canvas 123 246 722 759 scramble_indexes 0;
#X obj 35 217 else/scramble;
#X obj 35 188 else/group 112;
#X msg 123 160 clear;
#X text 95 34 scramble indexes;
#X obj 35 34 inlet;
#X obj 35 268 array define \$0-scrambled_indexes 112;
#X obj 35 242 array set \$0-scrambled_indexes;
#X obj 35 136 else/loop 0 111;
#X obj 51 72 r init;
#X obj 137 77 bng 20 250 50 0 empty empty empty 0 -10 0 12 #fcfcfc #000000 #000000;
#X obj 35 110 t b b, f 13;
#X connect 0 0 6 0;
#X connect 1 0 0 0;
#X connect 2 0 1 0;
#X connect 4 0 10 0;
#X connect 7 0 1 0;
#X connect 8 0 10 0;
#X connect 9 0 10 0;
#X connect 10 0 7 0;
#X connect 10 1 2 0;
#X restore 17 1203 pd scramble_indexes;
#X obj 17 1123 bng 20 250 50 0 empty empty empty 0 -10 0 12 #fcfcfc #000000 #000000;
#N canvas 0 0 1376 925 random_note_generator 0;
#X obj 92 50 inlet;
#X obj 813 45 array define \$0-scale 7;
#X obj 813 150 array set \$0-scale;
#X msg 813 114 0 2 4 5 7 9 11;
#X obj 813 79 loadbang;
#X obj 92 546 outlet;
#X obj 813 188 array define \$0-extra 2;
#X obj 813 226 loadbang;
#X msg 813 261 6 10;
#X obj 813 296 array set \$0-extra;
#X obj 1210 277 bng 24 250 50 0 empty empty empty 0 -12 0 16 #fcfcfc #000000 #000000;
#X obj 1210 428 else/iterate;
#X obj 1210 457 % 12;
#X msg 1243 354 clear;
#N canvas 0 50 450 250 (subpatch) 0;
#X array \$0-quantilator2 12 float 2;
#X coords 0 112 12 0 200 140 1 0 0;
#X restore 1208 585 graph;
#X obj 1210 525 tabwrite \$0-quantilator2;
#X obj 1210 389 array get 0-frag_\$0;
#X obj 1210 496 else/histogram -size 12;
#A saved;
#X msg 1409 330 const 0;
#X obj 1409 359 s \$0-quantilator2;
#X obj 1210 306 t b b b;
#X obj 1210 31 r \$0-sel_sequence;
#X msg 1243 233 symbol \$1-frag_\$2;
#X obj 1210 140 t b f b;
#X obj 1320 164 f \$0;
#X obj 1243 195 pack 0 0;
#X obj 139 394 * 12;
#X obj 92 418 +;
#X obj 92 245 t f b;
#N canvas 0 50 450 250 (subpatch) 0;
#X array \$0-octave_quantilator 100 float 3;
#A 0 0 3.19393e-05 0.000255129 0.000858893 0.00202873 0.00394442 0.00677823 0.0106932 0.0158412 0.022362 0.0303811 0.0400088 0.0513389 0.0644477 0.0793933 0.0962145 0.114931 0.135541 0.158025 0.182342 0.208431 0.236211 0.265584 0.296433 0.328622 0.362001 0.396404 0.431652 0.467553 0.503906 0.540499 0.577115 0.61353 0.649519 0.684854 0.719308 0.752657 0.784681 0.815167 0.843911 0.870716 0.895401 0.917796 0.937746 0.955112 0.969774 0.981629 0.990594 0.996606 0.999622 0.999622 0.996606 0.990594 0.981629 0.969774 0.955112 0.937746 0.917796 0.895401 0.870716 0.843911 0.815167 0.784681 0.752657 0.719308 0.684854 0.649519 0.61353 0.577114 0.540499 0.503906 0.467553 0.431652 0.396404 0.362001 0.328622 0.296433 0.265584 0.236211 0.208431 0.182342 0.158025 0.135541 0.114931 0.0962145 0.0793932 0.0644476 0.0513388 0.0400087 0.0303811 0.022362 0.0158412 0.0106932 0.00677823 0.00394442 0.00202873 0.000858886 0.000255128 3.19391e-05 -6.6815e-22;
#X coords 0 1 100 0 200 140 1 0 0;
#X restore 1535 97 graph;
#X obj 1540 456 bng 20 250 50 0 empty empty empty 0 -10 0 12 #fcfcfc #000000 #000000;
#X obj 1573 591 t f f;
#X obj 1607 521 else/pi;
#X obj 1573 649 *;
#X obj 1573 678 sin;
#X obj 1540 407 loadbang;
#X obj 1573 759 tabwrite \$0-octave_quantilator;
#X obj 217 85 until;
#X obj 1540 481 t b b b b;
#X msg 1648 460 const 0;
#X obj 1648 489 s \$0-octave_quantilator;
#X obj 697 341 random 100;
#X obj 697 370 / 99;
#X obj 697 408 array quantile \$0-octave_quantilator;
#X obj 1573 563 else/loop 0 99;
#X obj 1573 620 / 99;
#X obj 139 344 int;
#X obj 429 44 random 100;
#X obj 429 83 / 99;
#X obj 429 112 array quantile \$0-quantilator2;
#X obj 92 201 int;
#X floatatom 1210 78 5 0 0 0 - - - 0;
#X msg 217 56 100;
#X obj 92 172 else/rand.dist \$0-quantilator2 0 11;
#X obj 1573 715 pow 3;
#X obj 472 608 bng 24 250 50 0 empty empty empty 0 -12 0 16 #fcfcfc #000000 #000000;
#X obj 472 759 else/iterate;
#X msg 505 685 clear;
#X obj 472 720 array get 0-frag_\$0;
#X msg 671 661 const 0;
#X obj 472 637 t b b b;
#X obj 425 402 r \$0-sel_sequence;
#X msg 505 564 symbol \$1-frag_\$2;
#X obj 472 471 t b f b;
#X obj 582 495 f \$0;
#X obj 505 526 pack 0 0;
#X obj 471 866 tabwrite \$0-quant_new;
#N canvas 0 50 450 250 (subpatch) 0;
#X array \$0-quant_new 10 float 2;
#X coords 0 112 10 0 200 140 1 0 0;
#X restore 884 544 graph;
#X obj 472 788 div 12;
#X obj 671 690 s \$0-quant_new;
#X obj 1291 898 int;
#X msg 1291 803 100;
#X obj 1291 832 until;
#X obj 1291 927 print;
#X obj 1291 869 else/rand.dist \$0-quant_new 0 9;
#X obj 471 827 else/histogram -size 10;
#A saved;
#X obj 198 261 else/rand.dist \$0-octave_quantilator 0 7;
#X obj 92 462 + 0;
#X obj 139 315 else/rand.dist \$0-quant_new 0 9;
#X msg 425 672 export;
#X obj 584 1049 else/iterate;
#X obj 584 1088 t f f;
#X obj 584 1190 &&;
#X obj 584 1135 > 0;
#X obj 643 1137 == 0;
#X obj 732 1327 == 1;
#X obj 584 1326 else/count 10;
#X obj 584 1365 spigot;
#X obj 575 912 t l b;
#X msg 693 1136 reset;
#X obj 584 1219 t b f;
#X obj 585 1450 tabread \$0-quant_new;
#X obj 584 1394 t f f;
#X obj 585 1479 / 2;
#X obj 585 1537 tabwrite \$0-quant_new;
#X obj 791 1502 - 1;
#X obj 876 1052 else/iterate;
#X obj 876 1091 t f f;
#X obj 876 1193 &&;
#X obj 1024 1330 == 1;
#X obj 876 1329 else/count 10;
#X obj 876 1368 spigot;
#X msg 985 1139 reset;
#X obj 876 1222 t b f;
#X obj 874 1488 tabread \$0-quant_new;
#X obj 876 1397 t f f;
#X obj 874 1517 / 2;
#X obj 874 1575 tabwrite \$0-quant_new;
#X obj 876 1138 == 0;
#X obj 935 1140 > 0;
#X obj 874 985 t l b;
#X obj 876 1426 - 1;
#X obj 425 431 t b f;
#X connect 0 0 53 0;
#X connect 3 0 2 0;
#X connect 4 0 3 0;
#X connect 7 0 8 0;
#X connect 8 0 9 0;
#X connect 10 0 20 0;
#X connect 11 0 12 0;
#X connect 12 0 17 0;
#X connect 13 0 17 0;
#X connect 16 0 11 0;
#X connect 17 0 15 0;
#X connect 18 0 19 0;
#X connect 20 0 16 0;
#X connect 20 1 13 0;
#X connect 20 2 18 0;
#X connect 21 0 51 0;
#X connect 22 0 16 2;
#X connect 23 0 10 0;
#X connect 23 1 25 0;
#X connect 23 2 24 0;
#X connect 24 0 25 1;
#X connect 25 0 22 0;
#X connect 26 0 27 1;
#X connect 27 0 77 0;
#X connect 28 0 27 0;
#X connect 28 1 78 0;
#X connect 30 0 38 0;
#X connect 31 0 45 0;
#X connect 31 1 36 1;
#X connect 32 0 33 1;
#X connect 33 0 34 0;
#X connect 34 0 54 0;
#X connect 35 0 30 0;
#X connect 37 0 53 0;
#X connect 38 1 44 0;
#X connect 38 2 32 0;
#X connect 38 3 39 0;
#X connect 39 0 40 0;
#X connect 41 0 42 0;
#X connect 42 0 43 0;
#X connect 44 0 31 0;
#X connect 45 0 33 0;
#X connect 46 0 26 0;
#X connect 47 0 48 0;
#X connect 48 0 49 0;
#X connect 50 0 28 0;
#X connect 51 0 23 0;
#X connect 52 0 37 0;
#X connect 53 0 50 0;
#X connect 54 0 36 0;
#X connect 55 0 60 0;
#X connect 56 0 68 0;
#X connect 57 0 75 0;
#X connect 58 0 56 0;
#X connect 59 0 69 0;
#X connect 60 0 58 0;
#X connect 60 1 57 0;
#X connect 60 2 59 0;
#X connect 61 0 112 0;
#X connect 62 0 58 2;
#X connect 63 0 55 0;
#X connect 63 1 65 0;
#X connect 63 2 64 0;
#X connect 64 0 65 1;
#X connect 65 0 62 0;
#X connect 68 0 75 0;
#X connect 70 0 73 0;
#X connect 71 0 72 0;
#X connect 72 0 74 0;
#X connect 74 0 70 0;
#X connect 75 0 66 0;
#X connect 75 1 88 0;
#X connect 75 1 110 0;
#X connect 77 0 5 0;
#X connect 78 0 46 0;
#X connect 79 0 75 0;
#X connect 80 0 81 0;
#X connect 81 0 84 0;
#X connect 81 1 83 0;
#X connect 82 0 90 0;
#X connect 83 0 82 0;
#X connect 84 0 82 1;
#X connect 85 0 87 1;
#X connect 86 0 87 0;
#X connect 87 0 92 0;
#X connect 88 0 80 0;
#X connect 88 1 89 0;
#X connect 89 0 86 0;
#X connect 90 0 86 0;
#X connect 90 1 85 0;
#X connect 91 0 93 0;
#X connect 92 0 91 0;
#X connect 92 1 95 0;
#X connect 93 0 94 0;
#X connect 95 0 94 1;
#X connect 96 0 97 0;
#X connect 97 0 109 0;
#X connect 97 1 108 0;
#X connect 98 0 103 0;
#X connect 99 0 101 1;
#X connect 100 0 101 0;
#X connect 101 0 105 0;
#X connect 102 0 100 0;
#X connect 103 0 100 0;
#X connect 103 1 99 0;
#X connect 104 0 106 0;
#X connect 105 0 111 0;
#X connect 105 1 107 1;
#X connect 106 0 107 0;
#X connect 108 0 98 0;
#X connect 109 0 98 1;
#X connect 110 0 96 0;
#X connect 110 1 102 0;
#X connect 111 0 104 0;
#X connect 112 0 79 0;
#X connect 112 1 63 0;
#X restore 160 1443 pd random_note_generator;
#X obj 128 494 else/count 0 111;
#X obj 128 267 tgl 20 0 empty \$0-play_sequence play\ sequence 0 -10 0 12 #fcfcfc #000000 #000000 0 1;
#X msg 227 404 reset;
#X obj 131 829 sel 111;
#X obj 131 988 else/count 0 111;
#X obj 131 1038 t f f;
#X obj 17 1095 sel 111;
#X obj 666 570 array set visualizer;
#X obj 666 535 array get original;
#X obj 666 501 bng 20 250 50 0 empty empty empty 0 -10 0 12 #fcfcfc #000000 #000000;
#X obj 249 1576 tabwrite visualizer;
#X obj 264 1170 tgl 20 0 empty empty empty 0 -10 0 12 #fcfcfc #000000 #000000 0 1;
#X obj 178 1077 tabread \$0-scrambled_indexes;
#X obj 117 1252 else/router 2 0;
#X obj 525 1467 tabread original;
#X floatatom 305 389 5 0 0 0 - - - 0;
#X obj 128 463 metro 220;
#X text 865 466 set starting sequence;
#X obj 422 397 s init;
#X obj 422 253 bng 100 250 50 0 empty \$0-bang_init INIT 0 -10 0 12 #fcfcfc #000000 #000000;
#X obj 698 503 r init;
#X obj 293 795 pack 0 0, f 12;
#X obj 293 762 pipe f f 500;
#X obj 1005 683 declare -lib hcs;
#X obj 293 825 send redball_move;
#X obj 128 529 t f f f;
#X obj 351 620 tabread visualizer;
#X obj 351 653 int;
#X obj 160 1809 s new_position_xy;
#X obj 422 362 t b b;
#X obj 317 1696 r \$0-latency;
#X obj 410 731 r \$0-latency;
#X obj 603 388 s \$0-latency;
#X obj 469 428 s \$0-oscinit;
#X obj 317 527 nbx 3 25 -1e+37 1e+37 0 0 empty empty CURRENT-INDEX 0 -10 0 12 #00ff04 #000000 #000000 0 256;
#X obj 609 1541 tabread visualizer;
#X obj 525 1276 t f f f, f 9;
#X obj 238 1540 tabread visualizer;
#X obj 160 1411 t b f f, f 10;
#X obj 180 339 r init;
#X obj 160 1774 pack 0 0 0 0, f 16;
#X msg 160 1662 \$2 \$3 \$1 \$4;
#X obj 160 1616 pack 0 0 0 1;
#X obj 525 1588 pack 0 0 0 0, f 13;
#X obj 160 1733 pipe f f f f 500;
#N canvas 0 614 1666 748 MIDI_SEND 0;
#X obj 285 449 noteout 1;
#X obj 285 424 makenote 50 250;
#X obj 114 268 ctlout 64 1;
#X msg 166 218 127;
#X msg 114 212 0;
#X obj 166 179 delay 200;
#X obj 114 22 inlet index;
#X obj 284 204 inlet note;
#X obj 114 67 sel 0;
#X obj 284 233 t f b;
#X obj 387 12 r \$0-minmax_vel;
#X obj 387 37 unpack 0 0;
#X floatatom 433 262 5 0 0 0 - - - 0;
#X floatatom 505 262 5 0 0 0 - - - 0;
#X msg 621 122 40;
#X msg 674 122 80;
#X obj 621 15 loadbang;
#X obj 621 58 t b b;
#X obj 621 164 pack 0 0;
#X obj 621 219 s \$0-fdb_minmax_vel;
#X msg 621 189 set \$1 \$2;
#X msg 394 71 set \$1;
#X msg 467 74 set \$1;
#X obj 358 387 + 40;
#X obj 433 290 swap;
#X obj 433 319 -;
#X obj 358 358 cyclone/drunk 25 5;
#X obj 591 404 print velocity;
#X connect 1 0 0 0;
#X connect 1 1 0 1;
#X connect 3 0 2 0;
#X connect 4 0 2 0;
#X connect 5 0 3 0;
#X connect 6 0 8 0;
#X connect 7 0 9 0;
#X connect 8 0 5 0;
#X connect 8 0 4 0;
#X connect 9 0 1 0;
#X connect 9 1 26 0;
#X connect 10 0 11 0;
#X connect 11 0 12 0;
#X connect 11 0 21 0;
#X connect 11 1 13 0;
#X connect 11 1 22 0;
#X connect 12 0 24 0;
#X connect 12 0 23 1;
#X connect 13 0 24 1;
#X connect 14 0 18 0;
#X connect 14 0 12 0;
#X connect 15 0 18 1;
#X connect 15 0 13 0;
#X connect 16 0 17 0;
#X connect 17 0 14 0;
#X connect 17 1 15 0;
#X connect 18 0 20 0;
#X connect 20 0 19 0;
#X connect 21 0 14 0;
#X connect 22 0 15 0;
#X connect 23 0 1 1;
#X connect 24 0 25 0;
#X connect 24 1 25 1;
#X connect 25 0 26 1;
#X connect 26 0 23 0;
#X restore 295 692 pd MIDI_SEND;
#N canvas 614 60 552 383 check_neighbors 0;
#X obj 298 146 tabread visualizer;
#X obj 27 19 inlet generated;
#X obj 298 20 inlet index;
#X obj 298 80 - 1;
#X obj 345 80 + 1;
#X obj 174 209 ||;
#X obj 110 170 ==;
#X obj 201 134 ==;
#X obj 298 49 t f f;
#X obj 345 110 tabread visualizer;
#X obj 27 54 t f f f, f 17;
#X obj 27 298 outlet good;
#X obj 174 332 outlet repeat;
#X obj 27 258 else/router 2 0;
#X obj 174 296 t b;
#X connect 0 0 6 1;
#X connect 1 0 10 0;
#X connect 2 0 8 0;
#X connect 3 0 0 0;
#X connect 4 0 9 0;
#X connect 5 0 13 1;
#X connect 6 0 5 0;
#X connect 7 0 5 1;
#X connect 8 0 3 0;
#X connect 8 1 4 0;
#X connect 9 0 7 1;
#X connect 10 0 13 0;
#X connect 10 1 6 0;
#X connect 10 2 7 0;
#X connect 13 0 11 0;
#X connect 13 1 14 0;
#X connect 14 0 12 0;
#X restore 160 1506 pd check_neighbors;
#N canvas 558 111 636 613 check_neighbors_inverse 0;
#X obj 22 24 inlet value;
#X obj 200 24 inlet index;
#X obj 200 219 t f f, f 8;
#X obj 200 258 - 1;
#X obj 277 258 + 1;
#X obj 200 351 tabread visualizer;
#X obj 277 314 tabread visualizer;
#X obj 22 219 t f f f, f 16;
#X obj 100 338 ==;
#X obj 22 375 ==;
#X obj 220 525 s $-new_neighbor;
#X obj 200 283 t f f;
#X obj 277 283 t f f;
#X obj 297 461 f;
#X obj 220 461 f;
#X obj 22 406 sel 1;
#X obj 100 406 sel 1;
#X obj 179 578 outlet original;
#X obj 298 491 print neighbor_from_original;
#X obj 200 184 spigot;
#X obj 200 53 t f f f, f 10;
#X obj 248 92 > 0;
#X obj 297 99 < 111;
#X obj 248 121 &&;
#X connect 0 0 7 0;
#X connect 1 0 20 0;
#X connect 2 0 3 0;
#X connect 2 1 4 0;
#X connect 3 0 11 0;
#X connect 4 0 12 0;
#X connect 5 0 9 1;
#X connect 6 0 8 1;
#X connect 7 0 9 0;
#X connect 7 1 8 0;
#X connect 7 2 17 0;
#X connect 8 0 16 0;
#X connect 9 0 15 0;
#X connect 11 0 5 0;
#X connect 11 1 14 1;
#X connect 12 0 6 0;
#X connect 12 1 13 1;
#X connect 13 0 10 0;
#X connect 13 0 18 0;
#X connect 14 0 10 0;
#X connect 14 0 18 0;
#X connect 15 0 14 0;
#X connect 16 0 13 0;
#X connect 19 0 2 0;
#X connect 20 0 19 0;
#X connect 20 1 21 0;
#X connect 20 2 22 0;
#X connect 21 0 23 0;
#X connect 22 0 23 1;
#X connect 23 0 19 1;
#X restore 525 1505 pd check_neighbors_inverse;
#X obj 176 1350 r $-new_neighbor;
#X obj 183 869 r \$0-change_note;
#X obj 1005 613 declare -lib cyclone;
#X obj 317 557 s \$0-moveIndex;
#X msg 328 440 0;
#X obj 345 1114 r init;
#X obj 345 1169 f 0;
#X obj 264 1195 t f f;
#X obj 294 1316 s \$0-sel_sequence;
#X obj 152 1313 print sel_seq;
#X obj 294 1237 sel 1;
#X obj 345 1137 t b b b;
#X floatatom 696 244 5 0 0 0 - \$0-g_latency - 0;
#X msg 696 272 set \$1;
#X msg 603 313 470;
#X obj 603 249 loadbang;
#X obj 617 349 s \$0-fdb_latency;
#X obj 55 705 else/count 1 1000;
#X floatatom 33 746 5 0 0 0 - - - 0;
#X obj 33 785 s \$0-n_iteration;
#X msg 70 644 reset;
#X obj 23 524 r init;
#N canvas 433 225 816 591 MIDI_RECEIVE 0;
#X obj 82 234 keyup;
#X obj 82 269 sel 32;
#X obj 185 50 notein;
#X obj 185 81 stripnote;
#X obj 185 358 s \$0-change_note;
#X text 175 20 receive midi push;
#X obj 185 260 t b b;
#X obj 247 260 delay 500;
#X obj 185 302 bng 40 250 50 0 empty empty empty 0 -10 0 12 #fcfcfc #000000 #000000;
#X obj 334 75 else/note 0 16 DejaVu\ Sans\ Mono empty 7 0 0 0 0 255 255 255 0 0 48: init \, 72: play/stop \, 60: change_notes;
#X obj 185 125 sel 60 48 72, f 54;
#X obj 364 260 t b b;
#X obj 426 260 delay 500;
#X obj 543 260 t b b;
#X obj 603 260 delay 500;
#X obj 364 359 s \$0-bang_init;
#X obj 543 359 s \$0-play_sequence;
#X obj 86 168 print midi_rcv;
#X obj 364 302 bng 40 250 50 0 empty empty empty 0 -10 0 12 #fcfcfc #000000 #000000;
#X obj 543 302 bng 40 250 50 0 empty empty empty 0 -10 0 12 #fcfcfc #000000 #000000;
#X obj 185 231 cyclone/onebang 1;
#X obj 364 231 cyclone/onebang 1;
#X obj 543 231 cyclone/onebang 1;
#X connect 0 0 1 0;
#X connect 1 0 4 0;
#X connect 2 0 3 0;
#X connect 2 1 3 1;
#X connect 3 0 10 0;
#X connect 3 0 17 0;
#X connect 6 0 8 0;
#X connect 6 1 7 0;
#X connect 7 0 20 1;
#X connect 8 0 4 0;
#X connect 10 0 20 0;
#X connect 10 1 21 0;
#X connect 10 2 22 0;
#X connect 11 0 18 0;
#X connect 11 1 12 0;
#X connect 12 0 21 1;
#X connect 13 0 19 0;
#X connect 13 1 14 0;
#X connect 14 0 22 1;
#X connect 18 0 15 0;
#X connect 19 0 16 0;
#X connect 20 0 6 0;
#X connect 21 0 11 0;
#X connect 22 0 13 0;
#X restore 1005 788 pd MIDI_RECEIVE;
#X obj 294 1281 else/count 0 5;
#X obj 131 946 until;
#N canvas 0 0 1920 975 set_original 0;
#X obj 283 758 array set original;
#X obj 283 814 array define original 112;
#X obj 283 508 inlet;
#X obj 283 540 % 6;
#N canvas 0 50 450 250 (subpatch) 0;
#X array 0-frag_\$0 112 float 3;
#A 0 60 64 67 72 76 67 72 76 60 64 67 72 76 67 72 76 60 62 69 74 77 69 74 77 60 62 69 74 77 69 74 77 59 62 67 74 77 67 74 77 59 62 67 74 77 67 74 77 60 64 67 72 76 67 72 76 60 64 67 72 76 67 72 76 60 64 69 76 81 69 76 81 60 64 69 76 81 69 76 81 60 62 66 69 74 66 69 74 60 62 66 69 74 66 69 74 59 62 67 74 79 67 74 79 59 62 67 74 79 67 74 79;
#X coords 0 127 112 0 200 140 1 0 0;
#X restore 230 202 graph;
#N canvas 0 50 450 250 (subpatch) 0;
#X array 1-frag_\$0 112 float 3;
#A 0 59 62 67 74 79 67 74 79 59 62 67 74 79 67 74 79 59 60 64 67 72 64 67 72 59 60 64 67 72 64 67 72 57 60 64 67 72 64 67 72 57 60 64 67 72 64 67 72 50 57 62 66 72 62 66 72 50 57 62 66 72 62 66 72 55 59 62 67 71 62 67 71 55 59 62 67 71 62 67 71 55 58 64 67 73 64 67 73 55 58 64 67 73 64 67 73 53 57 62 69 74 62 69 74 53 57 62 69 74 62 69 74;
#X coords 0 127 112 0 200 140 1 0 0;
#X restore 437 202 graph;
#N canvas 0 50 450 250 (subpatch) 0;
#X array 2-frag_\$0 112 float 3;
#A 0 55 59 62 67 71 62 67 71 55 59 62 67 71 62 67 71 55 58 64 67 73 64 67 73 55 58 64 67 73 64 67 73 53 57 62 69 74 62 69 74 53 57 62 69 74 62 69 74 53 56 62 65 71 62 65 71 53 56 62 65 71 62 65 71 52 55 60 67 72 60 67 72 52 55 60 67 72 60 67 72 52 53 57 60 65 57 60 65 52 53 57 60 65 57 60 65 50 53 57 60 65 57 60 65 50 53 57 60 65 57 60 65;
#X coords 0 127 112 0 200 140 1 0 0;
#X restore 644 202 graph;
#N canvas 0 50 450 250 (subpatch) 0;
#X array 3-frag_\$0 112 float 3;
#A 0 43 50 55 59 65 55 59 65 43 50 55 59 65 55 59 65 48 52 55 60 64 55 60 64 48 52 55 60 64 55 60 64 48 55 58 60 64 58 60 64 48 55 58 60 64 58 60 64 41 53 57 60 64 57 60 64 41 53 57 60 64 57 60 64 42 48 57 60 63 57 60 63 42 48 57 60 63 57 60 63 44 53 59 60 62 59 60 62 44 53 59 60 62 59 60 62 43 53 55 59 62 55 59 62 43 53 55 59 62 55 59 62;
#X coords 0 127 112 0 200 140 1 0 0;
#X restore 851 202 graph;
#N canvas 0 50 450 250 (subpatch) 0;
#X array 4-frag_\$0 112 float 3;
#A 0 41 53 57 60 64 57 60 64 41 53 57 60 64 57 60 64 42 48 57 60 63 57 60 63 42 48 57 60 63 57 60 63 44 53 59 60 62 59 60 62 44 53 59 60 62 59 60 62 43 53 55 59 62 55 59 62 43 53 55 59 62 55 59 62 43 52 55 60 64 55 60 64 43 52 55 60 64 55 60 64 43 50 55 60 65 55 60 65 43 50 55 60 65 55 60 65 43 50 55 59 65 55 59 65 43 50 55 59 65 55 59 65;
#X coords 0 127 112 0 200 140 1 0 0;
#X restore 1057 202 graph;
#N canvas 0 50 450 250 (subpatch) 0;
#X array 5-frag_\$0 112 float 3;
#A 0 43 51 57 60 66 57 60 66 43 51 57 60 66 57 60 66 43 52 55 60 67 55 60 67 43 52 55 60 67 55 60 67 43 50 55 60 65 55 60 65 43 50 55 60 65 55 60 65 43 50 55 59 65 55 59 65 43 50 55 59 65 55 59 65 36 48 55 58 64 55 58 64 36 48 55 58 64 55 58 64 36 48 53 57 60 65 60 57 60 57 53 57 53 50 53 50 36 47 67 71 74 77 74 71 74 71 67 71 62 65 64 62;
#X coords 0 127 112 0 200 140 1 0 0;
#X restore 1264 202 graph;
#N canvas 490 98 1318 815 fragments 0;
#X msg 15 240 60 64 67 72 76 67 72 76 60 64 67 72 76 67 72 76 60 62 69 74 77 69 74 77 60 62 69 74 77 69 74 77 59 62 67 74 77 67 74 77 59 62 67 74 77 67 74 77 60 64 67 72 76 67 72 76 60 64 67 72 76 67 72 76 60 64 69 76 81 69 76 81 60 64 69 76 81 69 76 81 60 62 66 69 74 66 69 74 60 62 66 69 74 66 69 74 59 62 67 74 79 67 74 79 59 62 67 74 79 67 74 79;
#X msg 240 401 59 62 67 74 79 67 74 79 59 62 67 74 79 67 74 79 59 60 64 67 72 64 67 72 59 60 64 67 72 64 67 72 57 60 64 67 72 64 67 72 57 60 64 67 72 64 67 72 50 57 62 66 72 62 66 72 50 57 62 66 72 62 66 72 55 59 62 67 71 62 67 71 55 59 62 67 71 62 67 71 55 58 64 67 73 64 67 73 55 58 64 67 73 64 67 73 53 57 62 69 74 62 69 74 53 57 62 69 74 62 69 74;
#X text 462 534 frag2;
#X text 693 221 frag3;
#X msg 465 560 55 59 62 67 71 62 67 71 55 59 62 67 71 62 67 71 55 58 64 67 73 64 67 73 55 58 64 67 73 64 67 73 53 57 62 69 74 62 69 74 53 57 62 69 74 62 69 74 53 56 62 65 71 62 65 71 53 56 62 65 71 62 65 71 52 55 60 67 72 60 67 72 52 55 60 67 72 60 67 72 52 53 57 60 65 57 60 65 52 53 57 60 65 57 60 65 50 53 57 60 65 57 60 65 50 53 57 60 65 57 60 65;
#X text 917 372 frag4;
#X text 1127 523 frag5;
#X msg 688 246 43 50 55 59 65 55 59 65 43 50 55 59 65 55 59 65 48 52 55 60 64 55 60 64 48 52 55 60 64 55 60 64 48 55 58 60 64 58 60 64 48 55 58 60 64 58 60 64 41 53 57 60 64 57 60 64 41 53 57 60 64 57 60 64 42 48 57 60 63 57 60 63 42 48 57 60 63 57 60 63 44 53 59 60 62 59 60 62 44 53 59 60 62 59 60 62 43 53 55 59 62 55 59 62 43 53 55 59 62 55 59 62;
#X msg 914 397 41 53 57 60 64 57 60 64 41 53 57 60 64 57 60 64 42 48 57 60 63 57 60 63 42 48 57 60 63 57 60 63 44 53 59 60 62 59 60 62 44 53 59 60 62 59 60 62 43 53 55 59 62 55 59 62 43 53 55 59 62 55 59 62 43 52 55 60 64 55 60 64 43 52 55 60 64 55 60 64 43 50 55 60 65 55 60 65 43 50 55 60 65 55 60 65 43 50 55 59 65 55 59 65 43 50 55 59 65 55 59 65;
#X msg 1135 548 43 51 57 60 66 57 60 66 43 51 57 60 66 57 60 66 43 52 55 60 67 55 60 67 43 52 55 60 67 55 60 67 43 50 55 60 65 55 60 65 43 50 55 60 65 55 60 65 43 50 55 59 65 55 59 65 43 50 55 59 65 55 59 65 36 48 55 58 64 55 58 64 36 48 55 58 64 55 58 64 36 48 53 57 60 65 60 57 60 57 53 57 53 50 53 50 36 47 67 71 74 77 74 71 74 71 67 71 62 65 64 62;
#X obj 83 22 inlet;
#X obj 15 750 array set;
#X msg 102 712 symbol \$1-frag_\$2;
#X text 263 373 frag1;
#X text 53 215 frag0;
#X obj 84 91 sel 0 1 2 3 4 5, f 70;
#X obj 84 120 f 0;
#X obj 200 124 f 1;
#X obj 316 127 f 2;
#X obj 432 128 f 3;
#X obj 549 127 f 4;
#X obj 665 128 f 5;
#X obj 84 149 t b f b;
#X obj 102 669 pack 0 0;
#X obj 179 631 f \$0;
#X obj 200 160 t b f b;
#X obj 318 158 t b f b;
#X obj 433 161 t b f b;
#X obj 549 160 t b f b;
#X obj 665 157 t b f b;
#X obj 179 597 r \$0-zerodollar;
#X obj 102 567 r \$0-frag_index;
#X obj 117 208 s \$0-frag_index;
#X obj 277 207 s \$0-zerodollar;
#X obj 84 56 else/loop 0 5;
#X connect 0 0 11 0;
#X connect 1 0 11 0;
#X connect 4 0 11 0;
#X connect 7 0 11 0;
#X connect 8 0 11 0;
#X connect 9 0 11 0;
#X connect 10 0 34 0;
#X connect 12 0 11 2;
#X connect 15 0 16 0;
#X connect 15 1 17 0;
#X connect 15 2 18 0;
#X connect 15 3 19 0;
#X connect 15 4 20 0;
#X connect 15 5 21 0;
#X connect 16 0 22 0;
#X connect 17 0 25 0;
#X connect 18 0 26 0;
#X connect 19 0 27 0;
#X connect 20 0 28 0;
#X connect 21 0 29 0;
#X connect 22 0 0 0;
#X connect 22 1 32 0;
#X connect 22 2 33 0;
#X connect 23 0 12 0;
#X connect 24 0 23 1;
#X connect 25 0 1 0;
#X connect 25 1 32 0;
#X connect 25 2 33 0;
#X connect 26 0 4 0;
#X connect 26 1 32 0;
#X connect 26 2 33 0;
#X connect 27 0 7 0;
#X connect 27 1 32 0;
#X connect 27 2 33 0;
#X connect 28 0 8 0;
#X connect 28 1 32 0;
#X connect 28 2 33 0;
#X connect 29 0 9 0;
#X connect 29 1 32 0;
#X connect 29 2 33 0;
#X connect 30 0 24 0;
#X connect 31 0 23 0;
#X connect 34 0 15 0;
#X restore 360 108 pd fragments;
#X obj 360 70 bng 24 250 50 0 empty empty empty 0 -12 0 16 #fcfcfc #000000 #000000;
#X obj 360 36 r init;
#X obj 283 719 array get;
#X obj 283 569 t b f b;
#X obj 393 593 f \$0;
#X msg 370 682 symbol \$1-frag_\$2;
#X obj 316 634 pack 0 0;
#X floatatom 390 538 5 0 0 0 - - - 0;
#X msg 567 734 \; original bounds 0 127 111 0;
#X obj 567 700 loadbang;
#X connect 2 0 3 0;
#X connect 3 0 14 0;
#X connect 11 0 10 0;
#X connect 12 0 11 0;
#X connect 13 0 0 0;
#X connect 14 0 13 0;
#X connect 14 1 17 0;
#X connect 14 2 15 0;
#X connect 15 0 17 1;
#X connect 16 0 13 2;
#X connect 17 0 16 0;
#X connect 18 0 14 0;
#X connect 20 0 19 0;
#X restore 666 640 pd set_original;
#X obj 666 605 r \$0-sel_sequence;
#X obj 23 646 f 1;
#X obj 131 917 f 28;
#X obj 23 593 t b b;
#N canvas 0 0 1019 855 countdown_play 0;
#X obj 10 244 inlet;
#X obj 91 435 outlet;
#X obj 91 398 tgl 24 0 empty empty empty 0 -12 0 16 #fcfcfc #000000 #000000 0 1;
#X obj 212 413 tgl 20 0 empty empty empty 0 -10 0 12 #fcfcfc #000000 #000000 0 1;
#X obj 489 470 bng 20 250 50 0 empty empty empty 0 -10 0 12 #fcfcfc #000000 #000000;
#X obj 259 531 else/separate :;
#X obj 259 566 list split 1;
#X obj 259 494 else/chrono -t;
#X obj 212 364 t f b;
#X obj 259 402 pack 0 5;
#X floatatom 336 111 5 0 0 0 - - - 0;
#X obj 18 476 s \$0-initchrono;
#X obj 437 6 r \$0-set_countdown;
#X msg 437 41 set \$1;
#X msg 336 76 10;
#X obj 336 14 loadbang;
#X obj 503 410 s \$0-start-countdown;
#X obj 503 291 sel 1 0, f 10;
#X obj 503 340 f 13;
#X msg 503 381 color 22 \$1 22;
#X obj 437 139 s \$0-countdown_setter;
#X msg 437 105 set \$1;
#X obj 551 340 f 22;
#X obj 317 783 s \$0-new_countdown;
#X msg 164 744 color \$1 \$1 \$1;
#X obj 226 705 f 0;
#X obj 164 704 f 255;
#X text 474 261 22: nero \, 13: rosso;
#X obj 91 345 f 1;
#X obj 10 345 sel 0;
#X obj 10 374 f 0;
#X obj 268 14 r init;
#X msg 425 518 0;
#X obj 164 642 sel 0;
#X obj 226 674 t b;
#X obj 317 641 else/any2symbol;
#X floatatom 434 591 5 0 0 0 - - - 0;
#X msg 317 696 set > \$1 <;
#X obj 481 671 s \$0-osc-message;
#X obj 481 633 oscformat countdown;
#X connect 0 0 8 0;
#X connect 0 0 29 0;
#X connect 2 0 1 0;
#X connect 2 0 11 0;
#X connect 3 0 17 0;
#X connect 3 0 7 0;
#X connect 4 0 3 0;
#X connect 5 0 6 0;
#X connect 6 1 33 0;
#X connect 6 1 35 0;
#X connect 6 1 39 0;
#X connect 7 0 5 0;
#X connect 7 1 4 0;
#X connect 7 1 28 0;
#X connect 7 1 32 0;
#X connect 8 0 3 0;
#X connect 8 1 9 0;
#X connect 9 0 7 0;
#X connect 10 0 9 1;
#X connect 12 0 13 0;
#X connect 12 0 10 0;
#X connect 13 0 14 0;
#X connect 14 0 10 0;
#X connect 14 0 21 0;
#X connect 15 0 14 0;
#X connect 17 0 18 0;
#X connect 17 1 22 0;
#X connect 18 0 19 0;
#X connect 19 0 16 0;
#X connect 21 0 20 0;
#X connect 22 0 19 0;
#X connect 24 0 23 0;
#X connect 25 0 24 0;
#X connect 26 0 24 0;
#X connect 28 0 2 0;
#X connect 29 0 30 0;
#X connect 30 0 2 0;
#X connect 31 0 14 0;
#X connect 32 0 9 1;
#X connect 33 0 26 0;
#X connect 33 1 34 0;
#X connect 34 0 25 0;
#X connect 35 0 37 0;
#X connect 36 0 35 0;
#X connect 37 0 23 0;
#X connect 39 0 38 0;
#X restore 128 300 pd countdown_play;
#X obj 544 20 cnv 24 256 92 empty empty empty 20 12 0 16 #bbbbbb #404040 0;
#X floatatom 552 49 5 0 0 2 LATENCY \$0-fdb_latency \$0-g_latency 0;
#X obj 20 121 hsl 596 80 0 111 0 0 \$0-nothing \$0-moveIndex empty -2 -10 0 12 #ffffff #ff0400 #000000 0 1;
#N canvas 0 50 450 250 (subpatch) 0;
#X array visualizer 112 float 2;
#X coords 0 127 112 0 600 80 2 0 0;
#X restore 20 121 graph;
#X obj 19 30 bng 40 250 50 0 \$0-bang_init \$0-empty00 INIT 0 -10 0 12 #000000 #faff00 #000000;
#X obj 73 30 tgl 40 0 \$0-play_sequence \$0-empty01 PLAY/STOP 0 -10 0 12 #000000 #ffffff #000000 0 1;
#X listbox 151 80 12 0 0 0 time \$0-chrono \$0-empty00102 16;
#X listbox 651 49 10 0 0 2 MIN/MAX\ VEL \$0-fdb_minmax_vel \$0-minmax_vel 16;
#X obj 720 169 nbx 3 32 -1e+37 1e+37 0 0 \$0-empty5475364 \$0-moveIndex n_note 0 -12 0 16 #000000 #ffffff #000000 0 256;
#X obj 637 169 nbx 3 32 -1e+37 1e+37 0 0 \$0-empty54753 \$0-n_iteration n_seq 0 -12 0 16 #000000 #ffffff #000000 0 256;
#X listbox 552 82 5 0 0 1 SET\ COUNTDOWN\ (sec) \$0-countdown_setter \$0-set_countdown 16;
#X obj 319 17 else/note 0 24 DejaVu\ Sans\ Mono empty 7 255 255 255 0 0 0 0 1 1 infinity.BACH;
#X obj 118 36 else/note 161 24 DejaVu\ Sans\ Mono \$0-status_bar 6 255 255 255 0 0 0 0 1 1 paused;
#X obj 180 368 t b b;
#X msg 180 397 0;
#N canvas 702 135 776 424 clocker 0;
#X obj 20 82 tgl 20 0 empty empty empty 0 -10 0 12 #fcfcfc #000000 #000000 0 1;
#X symbolatom 20 323 10 0 0 0 - - - 0;
#X obj 20 190 sel 1 0;
#X msg 20 219 symbol playing...;
#X obj 29 116 else/chrono -h;
#X obj 29 151 s \$0-chrono;
#X obj 20 13 r \$0-initchrono;
#X obj 20 388 s \$0-status_bar;
#X msg 20 356 set \$1;
#X msg 52 253 symbol paused;
#X obj 202 35 r init;
#X msg 202 281 symbol ready;
#X obj 97 78 bng 24 250 50 0 empty empty empty 0 -12 0 16 #fcfcfc #000000 #000000;
#X msg 202 127 symbol 00:00:00:000;
#X connect 0 0 2 0;
#X connect 0 0 4 0;
#X connect 1 0 8 0;
#X connect 2 0 3 0;
#X connect 2 1 9 0;
#X connect 3 0 1 0;
#X connect 4 0 5 0;
#X connect 6 0 0 0;
#X connect 8 0 7 0;
#X connect 9 0 1 0;
#X connect 10 0 11 0;
#X connect 10 0 12 0;
#X connect 10 0 13 0;
#X connect 11 0 1 0;
#X connect 12 0 4 0;
#X connect 13 0 5 0;
#X restore 1005 753 pd clocker;
#N canvas 0 0 1920 975 OSC_COMM 0;
#X obj 283 254 else/loop 0 111;
#X obj 283 431 oscformat note;
#X obj 727 269 receive redball_move;
#X obj 726 565 oscformat redball;
#X obj 727 317 unpack 0 0;
#X obj 380 312 tabread visualizer;
#X obj 380 341 ib.mtoy;
#X obj 829 353 ib.mtoy;
#X obj 88 235 r new_position_xy;
#X obj 283 460 s \$0-osc-message;
#X obj 726 593 s \$0-osc-message;
#X obj 554 37 cnv 20 280 160 empty empty OSC-CONNECTION 20 12 0 12 #e0e0e0 #404040 0;
#X msg 571 76 connect localhost 12345;
#X msg 584 105 disconnect;
#X obj 575 163 netsend -b -u;
#X obj 607 132 r \$0-osc-message;
#X obj 330 177 oscformat setup;
#X msg 330 150 112;
#X obj 283 52 t b b;
#X obj 283 86 delay 500;
#X obj 283 121 t b b;
#X obj 283 23 r \$0-oscinit;
#X obj 330 205 s \$0-osc-message;
#X text 437 402 x y_start y_end active;
#X obj 283 288 t f f;
#X obj 133 336 ib.mtoy;
#X obj 179 304 ib.mtoy;
#X text 750 292 x_end y_end;
#X obj 727 348 t f f;
#X obj 727 423 t f f;
#X obj 762 463 tabread visualizer;
#X obj 761 496 ib.mtoy;
#X obj 727 386 expr if($f1 == 0 \, 111 \, $f1 - 1);
#X obj 88 270 unpack 0 0 0 0;
#X obj 88 375 pack 0 0 0 0, f 14;
#X msg 283 403 \$1 \$2 \$3 0 \$4;
#X obj 283 373 pack 0 0 0 0, f 15;
#X obj 437 587 r \$0-n_iteration;
#X obj 437 619 oscformat iteration;
#X obj 437 651 s \$0-osc-message;
#X obj 731 677 r init;
#X obj 731 862 oscformat redball;
#X obj 731 735 unpack 0 0 0 0;
#X obj 776 782 ib.mtoy;
#X obj 867 781 ib.mtoy;
#X obj 731 900 s \$0-osc-message;
#X msg 731 706 -1 60 -1 60;
#X obj 727 537 pack 0 0 0 0 1;
#X obj 731 828 pack 0 0 0 0 0, f 18;
#X connect 0 0 24 0;
#X connect 1 0 9 0;
#X connect 2 0 4 0;
#X connect 3 0 10 0;
#X connect 4 0 28 0;
#X connect 4 1 7 0;
#X connect 5 0 6 0;
#X connect 6 0 36 2;
#X connect 7 0 47 3;
#X connect 8 0 33 0;
#X connect 12 0 14 0;
#X connect 13 0 14 0;
#X connect 15 0 14 0;
#X connect 16 0 22 0;
#X connect 17 0 16 0;
#X connect 18 0 19 0;
#X connect 18 1 12 0;
#X connect 19 0 20 0;
#X connect 20 0 0 0;
#X connect 20 1 17 0;
#X connect 21 0 18 0;
#X connect 24 0 36 0;
#X connect 24 1 5 0;
#X connect 25 0 34 1;
#X connect 26 0 34 2;
#X connect 28 0 32 0;
#X connect 28 1 47 2;
#X connect 29 0 47 0;
#X connect 29 1 30 0;
#X connect 30 0 31 0;
#X connect 31 0 47 1;
#X connect 32 0 29 0;
#X connect 33 0 34 0;
#X connect 33 1 25 0;
#X connect 33 2 26 0;
#X connect 33 3 34 3;
#X connect 34 0 35 0;
#X connect 35 0 1 0;
#X connect 36 0 35 0;
#X connect 37 0 38 0;
#X connect 38 0 39 0;
#X connect 40 0 46 0;
#X connect 41 0 45 0;
#X connect 42 0 48 0;
#X connect 42 1 43 0;
#X connect 42 2 48 2;
#X connect 42 3 44 0;
#X connect 43 0 48 1;
#X connect 44 0 48 3;
#X connect 46 0 42 0;
#X connect 47 0 3 0;
#X connect 48 0 41 0;
#X restore 1005 718 pd OSC_COMM;
#X obj 292 44 else/note 250 64 DejaVu\ Sans\ Mono \$0-new_countdown 1 255 255 255 0 255 255 255 0 1 > 0 <;
#X connect 2 0 1 0;
#X connect 3 0 50 0;
#X connect 4 0 29 0;
#X connect 4 0 38 0;
#X connect 5 0 82 0;
#X connect 6 0 4 0;
#X connect 6 0 8 0;
#X connect 7 0 69 0;
#X connect 7 0 80 0;
#X connect 8 0 9 0;
#X connect 9 0 10 0;
#X connect 9 1 16 0;
#X connect 10 0 2 0;
#X connect 10 0 15 0;
#X connect 12 0 11 0;
#X connect 13 0 12 0;
#X connect 15 0 59 0;
#X connect 16 0 17 0;
#X connect 17 0 42 0;
#X connect 17 1 40 0;
#X connect 18 0 51 0;
#X connect 19 0 20 1;
#X connect 20 0 4 0;
#X connect 23 0 33 0;
#X connect 24 0 12 0;
#X connect 25 0 28 0;
#X connect 26 0 25 0;
#X connect 26 1 25 1;
#X connect 29 0 7 0;
#X connect 29 1 26 0;
#X connect 29 1 49 0;
#X connect 29 2 30 0;
#X connect 30 0 31 0;
#X connect 31 0 26 1;
#X connect 31 0 49 1;
#X connect 33 0 22 0;
#X connect 33 1 37 0;
#X connect 34 0 48 4;
#X connect 35 0 26 2;
#X connect 38 0 55 0;
#X connect 39 0 47 2;
#X connect 40 0 18 0;
#X connect 40 1 14 1;
#X connect 40 1 47 1;
#X connect 40 1 51 1;
#X connect 40 2 39 0;
#X connect 41 0 46 2;
#X connect 42 0 3 0;
#X connect 42 1 14 1;
#X connect 42 1 46 1;
#X connect 42 1 50 1;
#X connect 42 2 41 0;
#X connect 43 0 96 0;
#X connect 44 0 32 0;
#X connect 45 0 48 0;
#X connect 46 0 45 0;
#X connect 47 0 45 0;
#X connect 48 0 44 0;
#X connect 48 1 44 1;
#X connect 48 2 44 2;
#X connect 48 3 44 3;
#X connect 50 0 14 0;
#X connect 50 0 46 0;
#X connect 50 1 3 0;
#X connect 51 0 14 0;
#X connect 51 0 47 0;
#X connect 52 0 42 0;
#X connect 53 0 69 0;
#X connect 53 0 80 0;
#X connect 56 0 4 0;
#X connect 57 0 63 0;
#X connect 58 0 15 0;
#X connect 58 0 75 0;
#X connect 59 0 17 1;
#X connect 59 1 62 0;
#X connect 62 0 75 0;
#X connect 63 0 58 0;
#X connect 64 0 65 0;
#X connect 64 0 36 0;
#X connect 65 0 66 0;
#X connect 66 0 36 0;
#X connect 66 0 68 0;
#X connect 67 0 66 0;
#X connect 69 0 70 0;
#X connect 70 0 71 0;
#X connect 72 0 69 0;
#X connect 73 0 81 0;
#X connect 75 0 60 0;
#X connect 75 0 61 0;
#X connect 76 0 8 0;
#X connect 78 0 77 0;
#X connect 79 0 69 0;
#X connect 80 0 76 0;
#X connect 81 0 79 0;
#X connect 81 1 72 0;
#X connect 82 0 20 0;
#X connect 96 0 97 0;
#X connect 96 1 6 0;
#X connect 97 0 38 0;
#X coords 0 -1 1 1 800 200 2 10 10;
