#N canvas 10 10 1504 920 16;
#X declare -lib else;
#X declare -lib hcs;
#X declare -lib cyclone;
#N canvas 0 0 2256 1422 set_original 0;
#X msg 22 141 60 64 67 72 76 67 72 76 60 64 67 72 76 67 72 76 60 62 69 74 77 69 74 77 60 62 69 74 77 69 74 77 59 62 67 74 77 67 74 77 59 62 67 74 77 67 74 77 60 64 67 72 76 67 72 76 60 64 67 72 76 67 72 76 60 64 69 76 81 69 76 81 60 64 69 76 81 69 76 81 60 62 66 69 74 66 69 74 60 62 66 69 74 66 69 74 59 62 67 74 79 67 74 79 59 62 67 74 79 67 74 79;
#X obj 155 110 loadbang;
#X obj 24 596 array set original;
#X obj 24 624 array define original 112;
#X text 63 236 inverted;
#X msg 54 257 76 72 69 64 60 69 64 60 76 72 69 64 60 69 64 60 76 74 67 62 59 67 62 59 76 74 67 62 59 67 62 59 77 74 69 62 59 69 62 59 77 74 69 62 59 69 62 59 76 72 69 64 60 69 64 60 76 72 69 64 60 69 64 60 76 72 67 60 55 67 60 55 76 72 67 60 55 67 60 55 76 74 70 67 62 70 67 62 76 74 70 67 62 70 67 62 77 74 69 62 57 69 62 57 77 74 69 62 57 69 62 57;
#X msg 154 484 79 74 67 79 74 67 62 59 79 74 67 79 74 67 62 59 74 69 66 74 69 66 62 60 74 69 66 74 69 66 62 60 81 76 69 81 76 69 64 60 81 76 69 81 76 69 64 60 76 72 67 76 72 67 64 60 76 72 67 76 72 67 64 60 77 74 67 77 74 67 62 59 77 74 67 77 74 67 62 59 77 74 69 77 74 69 62 60 77 74 69 77 74 69 62 60 76 72 67 76 72 67 64 60 76 72 67 76 72 67 64 60;
#X text 161 462 reversed;
#X msg 85 371 57 62 69 57 62 69 74 77 57 62 69 57 62 69 74 77 62 67 70 62 67 70 74 76 62 67 70 62 67 70 74 76 55 60 67 55 60 67 72 76 55 60 67 55 60 67 72 76 60 64 69 60 64 69 72 76 60 64 69 60 64 69 72 76 59 62 69 59 62 69 74 77 59 62 69 59 62 69 74 77 59 62 67 59 62 67 74 76 59 62 67 59 62 67 74 76 60 64 69 60 64 69 72 76 60 64 69 60 64 69 72 76;
#X text 95 351 reversed-inverted;
#X obj 22 110 sel 0 1 2 3, f 18;
#X obj 22 55 % 4;
#X obj 22 29 inlet;
#X floatatom 42 80 5 0 0 0 - - - 0;
#X obj 548 100 sel 0 1 2 3;
#X msg 548 143 symbol original;
#X msg 567 170 symbol mirrored;
#X msg 586 200 symbol retrograde-mirrored;
#X msg 604 227 symbol retrograde;
#X connect 0 0 2 0;
#X connect 1 0 0 0;
#X connect 5 0 2 0;
#X connect 6 0 2 0;
#X connect 8 0 2 0;
#X connect 10 0 0 0;
#X connect 10 1 5 0;
#X connect 10 2 8 0;
#X connect 10 3 6 0;
#X connect 11 0 10 0;
#X connect 11 0 13 0;
#X connect 11 0 14 0;
#X connect 12 0 11 0;
#X connect 14 0 15 0;
#X connect 14 1 16 0;
#X connect 14 2 17 0;
#X connect 14 3 18 0;
#X restore 1004 784 pd set_original;
#X obj 1005 657 declare -lib else;
#N canvas 123 246 722 759 scramble_indexes 0;
#X obj 35 217 else/scramble;
#X obj 35 188 else/group 112;
#X msg 123 160 clear;
#X text 95 34 scramble indexes;
#X obj 35 34 inlet;
#X obj 35 268 array define \$0-scrambled_indexes 112;
#X obj 35 242 array set \$0-scrambled_indexes;
#X obj 35 136 else/loop 0 111;
#X obj 51 72 r init;
#X obj 137 77 bng 20 250 50 0 empty empty empty 0 -10 0 12 #fcfcfc #000000 #000000;
#X obj 35 110 t b b, f 13;
#X connect 0 0 6 0;
#X connect 1 0 0 0;
#X connect 2 0 1 0;
#X connect 4 0 10 0;
#X connect 7 0 1 0;
#X connect 8 0 10 0;
#X connect 9 0 10 0;
#X connect 10 0 7 0;
#X connect 10 1 2 0;
#X restore 17 1123 pd scramble_indexes;
#X obj 17 1043 bng 20 250 50 0 empty empty empty 0 -10 0 12 #fcfcfc #000000 #000000;
#N canvas 108 70 1714 1209 random_note_generator 0;
#X obj 92 50 inlet;
#X obj 676 21 array define \$0-scale 7;
#X obj 676 96 array set \$0-scale;
#X msg 676 70 0 2 4 5 7 9 11;
#X obj 676 45 loadbang;
#X obj 92 307 t f f;
#X obj 92 352 % 7;
#X obj 92 397 tabread \$0-scale;
#X obj 209 331 div 7;
#X obj 209 430 * 12;
#X obj 92 454 +;
#X obj 92 509 + 24;
#X obj 92 546 outlet;
#X obj 92 94 random 100;
#X obj 92 158 t b;
#X obj 676 134 array define \$0-extra 2;
#X obj 676 162 loadbang;
#X msg 676 187 6 10;
#X obj 676 212 array set \$0-extra;
#X obj 424 287 random 7;
#X obj 518 266 random 2;
#X obj 424 242 t b b;
#X obj 518 298 tabread \$0-extra;
#X obj 424 322 * 12;
#X obj 424 357 +;
#X obj 92 129 moses 90;
#X obj 507 177 t b;
#X obj 507 212 random 80;
#X obj 424 153 moses 97;
#N canvas 0 50 450 250 (subpatch) 0;
#X array \$0-quantilator 50 float 3;
#A 0 0 0.000247561 0.00196879 0.00657929 0.0153806 0.0295085 0.0498866 0.0771887 0.111809 0.153841 0.203075 0.258991 0.320782 0.38737 0.457447 0.529509 0.601913 0.672928 0.740793 0.803777 0.860239 0.90868 0.947798 0.97653 0.994092 1 0.994092 0.97653 0.947797 0.90868 0.860239 0.803777 0.740793 0.672927 0.601912 0.529509 0.457446 0.38737 0.320782 0.258991 0.203075 0.153841 0.111809 0.0771886 0.0498866 0.0295085 0.0153806 0.00657929 0.00196879 0.00024756;
#X coords 0 1 50 0 200 140 1 0 0;
#X restore 788 344 graph;
#X obj 634 484 bng 20 250 50 0 empty empty empty 0 -10 0 12 #fcfcfc #000000 #000000;
#X obj 634 618 t f f;
#X obj 634 829 tabwrite \$0-quantilator;
#X obj 634 509 t b b;
#X obj 681 546 else/pi;
#X obj 634 676 *;
#X obj 634 705 sin;
#X obj 634 435 loadbang;
#X obj 296 707 bng 24 250 50 0 empty empty empty 0 -12 0 16 #fcfcfc #000000 #000000;
#X obj 296 805 array quantile \$0-quantilator;
#X floatatom 296 834 5 0 0 0 - - - 0;
#X obj 634 589 else/loop 0 49;
#X obj 634 647 / 50;
#X obj 296 736 random 100;
#X obj 296 765 / 99;
#N canvas 0 50 450 250 (subpatch) 0;
#X array \$0-quantilator2 50 float 3;
#A 0 0 1 0 0 0 0 6 7 0 9 0 0 0 13 0 15 0 17 18 19 0 0 22 23 24 25 26 0 28 29 30 31 32 33 34 35 0 37 38 39 0 0 0 0 0 0 0 0 0 0;
#X coords 0 50 50 0 200 140 1 0 0;
#X restore 591 995 graph;
#X obj 296 862 t f f;
#X obj 297 921 tabwrite \$0-quantilator2;
#X msg 293 632 50;
#X obj 293 661 until;
#X msg 853 936 const 0;
#X obj 853 965 s \$0-quantilator2;
#X obj 92 192 random 100;
#X obj 92 271 array quantile \$0-quantilator;
#X obj 92 231 / 99;
#X obj 634 785 pow 3;
#X connect 0 0 13 0;
#X connect 3 0 2 0;
#X connect 4 0 3 0;
#X connect 5 0 6 0;
#X connect 5 1 8 0;
#X connect 6 0 7 0;
#X connect 7 0 10 0;
#X connect 8 0 9 0;
#X connect 9 0 10 1;
#X connect 10 0 11 0;
#X connect 11 0 12 0;
#X connect 13 0 25 0;
#X connect 14 0 52 0;
#X connect 16 0 17 0;
#X connect 17 0 18 0;
#X connect 19 0 23 0;
#X connect 20 0 22 0;
#X connect 21 0 19 0;
#X connect 21 1 20 0;
#X connect 22 0 24 1;
#X connect 23 0 24 0;
#X connect 24 0 11 0;
#X connect 25 0 14 0;
#X connect 25 1 28 0;
#X connect 26 0 27 0;
#X connect 27 0 11 0;
#X connect 28 0 21 0;
#X connect 28 1 26 0;
#X connect 30 0 33 0;
#X connect 31 0 42 0;
#X connect 31 1 32 1;
#X connect 33 0 41 0;
#X connect 33 1 34 0;
#X connect 34 0 35 1;
#X connect 35 0 36 0;
#X connect 36 0 55 0;
#X connect 37 0 30 0;
#X connect 38 0 43 0;
#X connect 39 0 40 0;
#X connect 40 0 46 0;
#X connect 41 0 31 0;
#X connect 42 0 35 0;
#X connect 43 0 44 0;
#X connect 44 0 39 0;
#X connect 46 0 47 0;
#X connect 46 1 47 1;
#X connect 48 0 49 0;
#X connect 49 0 38 0;
#X connect 50 0 51 0;
#X connect 52 0 54 0;
#X connect 53 0 5 0;
#X connect 54 0 53 0;
#X connect 55 0 32 0;
#X restore 160 1313 pd random_note_generator;
#X obj 128 494 else/count 0 111;
#X obj 76 345 tgl 20 0 empty \$0-play_sequence play\ sequence 0 -10 0 12 #fcfcfc #000000 #000000 0 1;
#X msg 227 465 reset;
#X obj 128 849 sel 111;
#X obj 128 934 else/count 0 111;
#X obj 128 964 t f f;
#X obj 17 1015 sel 111;
#X obj 736 602 array set visualizer;
#X obj 736 567 array get original;
#X obj 736 533 bng 20 250 50 0 empty empty empty 0 -10 0 12 #fcfcfc #000000 #000000;
#X obj 249 1446 tabwrite visualizer;
#X obj 264 1090 tgl 20 0 empty empty empty 0 -10 0 12 #fcfcfc #000000 #000000 0 1;
#X floatatom 193 959 5 0 0 0 - - - 0;
#X obj 160 999 tabread \$0-scrambled_indexes;
#X obj 117 1172 else/router 2 0;
#X obj 455 1313 tabread original;
#X floatatom 305 389 5 0 0 0 - - - 0;
#X obj 128 463 metro 220;
#X text 733 511 set starting sequence;
#X obj 501 462 s init;
#X obj 447 337 bng 100 250 50 0 empty \$0-bang_init INIT 0 -10 0 12 #fcfcfc #000000 #000000;
#X obj 768 535 r init;
#N canvas 0 0 1920 975 initialization 0;
#X obj 283 214 else/loop 0 111;
#X obj 283 412 oscformat note;
#X obj 283 181 bng 20 250 50 0 empty empty empty 0 -10 0 12 #fcfcfc #000000 #000000;
#X obj 727 269 receive redball_move;
#X obj 726 565 oscformat redball;
#X obj 727 317 unpack 0 0;
#X obj 380 293 tabread visualizer;
#X obj 380 322 ib.mtoy;
#X obj 844 353 ib.mtoy;
#X obj 44 144 r new_position_xy;
#X obj 283 437 s \$0-osc-message;
#X obj 726 593 s \$0-osc-message;
#X obj 554 37 cnv 20 280 160 empty empty OSC-CONNECTION 20 12 0 12 #e0e0e0 #404040 0;
#X msg 571 76 connect localhost 12345;
#X msg 584 105 disconnect;
#X obj 575 163 netsend -b -u;
#X obj 607 132 r \$0-osc-message;
#X obj 330 158 oscformat setup;
#X msg 330 131 112;
#X obj 283 52 t b b;
#X obj 283 77 delay 500;
#X obj 283 102 t b b;
#X obj 283 27 r \$0-oscinit;
#X obj 330 186 s \$0-osc-message;
#X text 385 383 x y_start y_end active;
#X obj 283 269 t f f;
#X obj 89 245 ib.mtoy;
#X obj 135 213 ib.mtoy;
#X text 750 292 x_end y_end;
#X obj 727 348 t f f;
#X obj 727 423 t f f;
#X obj 727 537 pack 0 0 0 0;
#X obj 767 460 tabread visualizer;
#X obj 766 493 ib.mtoy;
#X obj 727 386 expr if($f1 == 0 \, 111 \, $f1 - 1);
#X obj 44 179 unpack 0 0 0 0;
#X obj 44 284 pack 0 0 0 0, f 14;
#X msg 283 384 \$1 \$2 \$3 0 \$4;
#X obj 283 354 pack 0 0 0 0, f 15;
#X obj 425 501 r \$0-n_iteration;
#X obj 425 533 oscformat iteration;
#X obj 425 565 s \$0-osc-message;
#X connect 0 0 25 0;
#X connect 1 0 10 0;
#X connect 2 0 0 0;
#X connect 3 0 5 0;
#X connect 4 0 11 0;
#X connect 5 0 29 0;
#X connect 5 1 8 0;
#X connect 6 0 7 0;
#X connect 7 0 38 2;
#X connect 8 0 31 3;
#X connect 9 0 35 0;
#X connect 13 0 15 0;
#X connect 14 0 15 0;
#X connect 16 0 15 0;
#X connect 17 0 23 0;
#X connect 18 0 17 0;
#X connect 19 0 20 0;
#X connect 19 1 13 0;
#X connect 20 0 21 0;
#X connect 21 0 2 0;
#X connect 21 1 18 0;
#X connect 22 0 19 0;
#X connect 25 0 38 0;
#X connect 25 1 6 0;
#X connect 26 0 36 1;
#X connect 27 0 36 2;
#X connect 29 0 34 0;
#X connect 29 1 31 2;
#X connect 30 0 31 0;
#X connect 30 1 32 0;
#X connect 31 0 4 0;
#X connect 32 0 33 0;
#X connect 33 0 31 1;
#X connect 34 0 30 0;
#X connect 35 0 36 0;
#X connect 35 1 26 0;
#X connect 35 2 27 0;
#X connect 35 3 36 3;
#X connect 36 0 37 0;
#X connect 37 0 1 0;
#X connect 38 0 37 0;
#X connect 39 0 40 0;
#X connect 40 0 41 0;
#X restore 1005 709 pd initialization;
#X obj 453 785 pack 0 0, f 12;
#X obj 453 752 pipe f f 500;
#X obj 1005 683 declare -lib hcs;
#X obj 453 811 send redball_move;
#X obj 128 529 t f f f;
#X obj 493 628 tabread visualizer;
#X obj 227 371 bng 20 250 50 0 empty empty empty 0 -10 0 12 #fcfcfc #000000 #000000;
#X obj 493 661 int;
#X obj 160 1659 s new_position_xy;
#X obj 447 442 t b b;
#X obj 189 1570 r \$0-latency;
#X obj 570 721 r \$0-latency;
#X obj 603 466 s \$0-latency;
#X obj 447 489 s \$0-oscinit;
#X obj 317 527 nbx 3 25 -1e+37 1e+37 0 0 empty empty CURRENT-INDEX 0 -10 0 12 #00ff04 #000000 #000000 0 256;
#X obj 663 1438 tabread visualizer;
#X obj 455 1142 t f f f, f 30;
#X obj 238 1410 tabread visualizer;
#X obj 160 1281 t b f f, f 10;
#X obj 227 339 r init;
#X obj 160 1634 pack 0 0 0 0, f 16;
#X msg 160 1532 \$2 \$3 \$1 \$4;
#X obj 160 1486 pack 0 0 0 1;
#X obj 455 1484 pack 0 0 0 0, f 45;
#X obj 160 1603 pipe f f f f 500;
#X floatatom 332 43 5 0 0 2 LATENCY \$0-fdb_latency \$0-g_latency 0;
#N canvas 134 140 1666 748 MIDI_SEND 0;
#X obj 285 449 noteout 1;
#X obj 285 424 makenote 50 250;
#X obj 114 268 ctlout 64 1;
#X msg 166 218 127;
#X msg 114 212 0;
#X obj 166 179 delay 200;
#X obj 114 22 inlet index;
#X obj 284 204 inlet note;
#X obj 114 67 sel 0;
#X obj 284 233 t f b;
#X obj 387 12 r \$0-minmax_vel;
#X obj 387 37 unpack 0 0;
#X floatatom 433 262 5 0 0 0 - - - 0;
#X floatatom 505 262 5 0 0 0 - - - 0;
#X msg 621 122 40;
#X msg 674 122 60;
#X obj 621 15 loadbang;
#X obj 621 58 t b b;
#X obj 621 164 pack 0 0;
#X obj 621 219 s \$0-fdb_minmax_vel;
#X msg 621 189 set \$1 \$2;
#X msg 394 71 set \$1;
#X msg 467 74 set \$1;
#X obj 358 387 + 40;
#X obj 433 290 swap;
#X obj 433 319 -;
#X obj 358 358 cyclone/drunk 25 5;
#X connect 1 0 0 0;
#X connect 1 1 0 1;
#X connect 3 0 2 0;
#X connect 4 0 2 0;
#X connect 5 0 3 0;
#X connect 6 0 8 0;
#X connect 7 0 9 0;
#X connect 8 0 5 0;
#X connect 8 0 4 0;
#X connect 9 0 1 0;
#X connect 9 1 26 0;
#X connect 10 0 11 0;
#X connect 11 0 12 0;
#X connect 11 0 21 0;
#X connect 11 1 13 0;
#X connect 11 1 22 0;
#X connect 12 0 24 0;
#X connect 12 0 23 1;
#X connect 13 0 24 1;
#X connect 14 0 18 0;
#X connect 14 0 12 0;
#X connect 15 0 18 1;
#X connect 15 0 13 0;
#X connect 16 0 17 0;
#X connect 17 0 14 0;
#X connect 17 1 15 0;
#X connect 18 0 20 0;
#X connect 20 0 19 0;
#X connect 21 0 14 0;
#X connect 22 0 15 0;
#X connect 23 0 1 1;
#X connect 24 0 25 0;
#X connect 25 0 26 1;
#X connect 26 0 23 0;
#X restore 455 692 pd MIDI_SEND;
#X obj 76 370 sel 1 0;
#X obj 76 395 f 1;
#X obj 128 418 f 0;
#N canvas 572 320 1290 989 check_neighbors 0;
#X obj 395 157 tabread visualizer;
#X obj 164 46 inlet generated;
#X obj 395 50 inlet index;
#X obj 395 104 - 1;
#X obj 427 104 + 1;
#X obj 266 226 ||;
#X obj 222 176 ==;
#X obj 284 151 ==;
#X obj 395 74 t f f;
#X obj 427 132 tabread visualizer;
#X obj 164 71 t f f f, f 17;
#X obj 164 315 outlet good;
#X obj 266 335 outlet repeat;
#X obj 164 275 else/router 2 0;
#X obj 266 309 t b;
#X connect 0 0 6 1;
#X connect 1 0 10 0;
#X connect 2 0 8 0;
#X connect 3 0 0 0;
#X connect 4 0 9 0;
#X connect 5 0 13 1;
#X connect 6 0 5 0;
#X connect 7 0 5 1;
#X connect 8 0 3 0;
#X connect 8 1 4 0;
#X connect 9 0 7 1;
#X connect 10 0 13 0;
#X connect 10 1 6 0;
#X connect 10 2 7 0;
#X connect 13 0 11 0;
#X connect 13 1 14 0;
#X connect 14 0 12 0;
#X restore 160 1376 pd check_neighbors;
#N canvas 558 111 1065 822 check_neighbors_inverse 0;
#X obj 22 24 inlet value;
#X obj 200 24 inlet index;
#X obj 200 49 t f f, f 8;
#X obj 200 88 - 1;
#X obj 253 88 + 1;
#X obj 200 166 tabread visualizer;
#X obj 253 139 tabread visualizer;
#X obj 22 49 t f f f, f 16;
#X obj 77 158 ==;
#X obj 22 185 ==;
#X obj 214 345 s $-new_neighbor;
#X obj 200 113 t f f;
#X obj 253 113 t f f;
#X obj 267 291 f;
#X obj 214 291 f;
#X obj 22 216 sel 1;
#X obj 77 216 sel 1;
#X obj 131 388 outlet original;
#X obj 268 321 print neighbor_from_original;
#X connect 0 0 7 0;
#X connect 1 0 2 0;
#X connect 2 0 3 0;
#X connect 2 1 4 0;
#X connect 3 0 11 0;
#X connect 4 0 12 0;
#X connect 5 0 9 1;
#X connect 6 0 8 1;
#X connect 7 0 9 0;
#X connect 7 1 8 0;
#X connect 7 2 17 0;
#X connect 8 0 16 0;
#X connect 9 0 15 0;
#X connect 11 0 5 0;
#X connect 11 1 14 1;
#X connect 12 0 6 0;
#X connect 12 1 13 1;
#X connect 13 0 10 0;
#X connect 13 0 18 0;
#X connect 14 0 10 0;
#X connect 14 0 18 0;
#X connect 15 0 14 0;
#X connect 16 0 13 0;
#X restore 455 1351 pd check_neighbors_inverse;
#X obj 180 1229 r $-new_neighbor;
#X obj 180 1254 print new_neighbor;
#X obj 44 818 r \$0-change_note;
#X obj 1005 633 declare -lib cyclone;
#X obj 20 121 hsl 596 80 0 111 0 0 \$0-nothing \$0-moveIndex empty -2 -10 0 12 #ffffff #ff0400 #000000 0 1;
#X obj 317 557 s \$0-moveIndex;
#N canvas 0 50 450 250 (subpatch) 0;
#X array visualizer 112 float 3;
#A 0 60 64 67 72 76 67 72 76 60 64 67 72 76 67 72 76 60 62 69 74 77 69 74 77 60 62 69 74 77 69 74 77 59 62 67 74 77 67 74 77 59 62 67 74 77 67 74 77 60 64 67 72 76 67 72 76 60 64 67 72 76 67 72 76 60 64 69 76 81 69 76 81 60 64 69 76 81 69 76 81 60 62 66 69 74 66 69 74 60 62 66 69 74 66 69 74 59 62 67 74 79 67 74 79 59 62 67 74 79 67 74 57;
#X coords 0 127 112 0 600 80 1 0 0;
#X restore 20 121 graph;
#X msg 328 440 0;
#X obj 304 947 bng 20 250 50 0 empty empty empty 0 -10 0 12 #fcfcfc #000000 #000000;
#X obj 314 1022 r init;
#X obj 314 1074 f 0;
#X obj 76 418 pipe 1;
#X obj 128 905 until;
#X obj 264 1115 t f f;
#X obj 294 1206 s \$0-sel_sequence;
#X obj 1004 749 r \$0-sel_sequence;
#X obj 395 1104 print sel_seq;
#X obj 294 1157 sel 1;
#X obj 314 1045 t b b b;
#X obj 19 30 bng 40 250 50 0 \$0-bang_init \$0-empty00 INIT 0 -10 0 12 #fcfcfc #000000 #000000;
#X obj 83 30 tgl 40 0 \$0-play_sequence \$0-empty01 PLAY/STOP 0 -10 0 12 #00faff #606060 #000000 0 1;
#X obj 838 228 tgl 20 0 empty \$0-play_sequence empty 0 -10 0 12 #fcfcfc #000000 #000000 0 1;
#X symbolatom 838 335 10 0 0 0 - - \$0-status_bar 0;
#X obj 838 256 sel 1 0;
#X msg 838 285 symbol playing...;
#X msg 862 309 symbol stopped;
#X listbox 132 77 12 0 0 0 time \$0-chrono \$0-empty00102 24;
#X obj 654 220 bng 20 250 50 0 empty empty empty 0 -10 0 12 #fcfcfc #000000 #000000;
#X obj 631 256 else/chrono -h;
#X obj 631 281 s \$0-chrono;
#X obj 679 219 r init;
#X floatatom 696 336 5 0 0 0 - \$0-g_latency - 0;
#X msg 696 360 set \$1;
#X msg 603 391 470;
#X obj 603 337 loadbang;
#X obj 617 427 s \$0-fdb_latency;
#X listbox 401 43 10 0 0 2 MIN/MAX\ VELOCITY \$0-fdb_minmax_vel \$0-minmax_vel 0;
#X obj 639 39 nbx 3 32 -1e+37 1e+37 0 0 \$0-empty5475364 \$0-moveIndex note\ number 0 -10 0 24 #00ff04 #000000 #000000 0 256;
#X obj 112 614 sel 0;
#X obj 55 705 else/count 1 1000;
#X floatatom 33 746 5 0 0 0 - - - 0;
#X obj 640 102 nbx 3 32 -1e+37 1e+37 0 0 \$0-empty54753 \$0-n_iteration iteration 0 -10 0 24 #00ff04 #000000 #000000 0 256;
#X obj 33 785 s \$0-n_iteration;
#X obj 133 35 cnv 20 140 30 empty empty empty 20 12 0 12 #00faff #404040 0;
#X symbolatom 133 34 10 0 0 0 - \$0-status_bar \$0-empty002 24;
#X msg 56 594 reset;
#X obj 23 564 r init;
#X obj 1029 403 bng 20 250 50 0 empty empty empty 0 -10 0 12 #fcfcfc #000000 #000000;
#X obj 1060 407 tgl 20 0 empty empty empty 0 -10 0 12 #fcfcfc #000000 #000000 0 1;
#X obj 1017 465 else/chrono -t 0 5;
#X obj 1122 540 bng 20 250 50 0 empty empty empty 0 -10 0 12 #fcfcfc #000000 #000000;
#X obj 1028 566 print;
#X obj 992 512 else/separate :;
#X obj 992 537 list split 1;
#X text 1015 377 countdown init;
#X obj 128 877 f 8;
#X obj 294 1181 else/count 0 0;
#X obj 101 674 print;
#X obj 17 633 f 0;
#N canvas 936 225 816 591 MIDI_RECEIVE 0;
#X obj 82 234 keyup;
#X obj 82 269 sel 32;
#X obj 185 50 notein;
#X obj 185 81 stripnote;
#X obj 185 338 s \$0-change_note;
#X text 175 20 receive midi push;
#X obj 185 231 cyclone/onebang;
#X obj 185 260 t b b;
#X obj 247 260 delay 500;
#X obj 185 302 bng 20 250 50 0 empty empty empty 0 -10 0 12 #fcfcfc #000000 #000000;
#X obj 334 75 else/note 0 16 DejaVu\ Sans\ Mono empty 7 0 0 0 0 255 255 255 0 0 48: init \, 72: play/stop \, 60: change_notes;
#X obj 185 125 sel 60 48 72, f 54;
#X obj 364 231 cyclone/onebang;
#X obj 364 260 t b b;
#X obj 426 260 delay 500;
#X obj 543 231 cyclone/onebang;
#X obj 543 260 t b b;
#X obj 603 260 delay 500;
#X obj 364 339 s \$0-bang_init;
#X obj 543 339 s \$0-play_sequence;
#X connect 0 0 1 0;
#X connect 1 0 9 0;
#X connect 2 0 3 0;
#X connect 2 1 3 1;
#X connect 3 0 11 0;
#X connect 6 0 7 0;
#X connect 7 0 9 0;
#X connect 7 1 8 0;
#X connect 8 0 6 1;
#X connect 9 0 4 0;
#X connect 11 0 6 0;
#X connect 11 1 12 0;
#X connect 11 2 15 0;
#X connect 12 0 13 0;
#X connect 13 0 18 0;
#X connect 13 1 14 0;
#X connect 14 0 12 1;
#X connect 15 0 16 0;
#X connect 16 0 19 0;
#X connect 16 1 17 0;
#X connect 17 0 15 1;
#X restore 707 921 pd MIDI_RECEIVE;
#X text 698 895 MIDI RECEIVE COMM;
#X connect 3 0 2 0;
#X connect 4 0 58 0;
#X connect 5 0 32 0;
#X connect 5 0 42 0;
#X connect 6 0 55 0;
#X connect 7 0 5 0;
#X connect 7 0 9 0;
#X connect 8 0 115 0;
#X connect 9 0 10 0;
#X connect 9 0 17 0;
#X connect 10 0 11 0;
#X connect 10 1 18 0;
#X connect 11 0 3 0;
#X connect 11 0 16 0;
#X connect 13 0 12 0;
#X connect 14 0 13 0;
#X connect 16 0 73 0;
#X connect 18 0 19 0;
#X connect 19 0 46 0;
#X connect 19 1 44 0;
#X connect 20 0 59 0;
#X connect 21 0 22 1;
#X connect 22 0 5 0;
#X connect 25 0 37 0;
#X connect 26 0 13 0;
#X connect 28 0 31 0;
#X connect 29 0 28 0;
#X connect 29 1 28 1;
#X connect 32 0 8 0;
#X connect 32 0 98 0;
#X connect 32 1 29 0;
#X connect 32 1 54 0;
#X connect 32 2 33 0;
#X connect 33 0 35 0;
#X connect 34 0 7 0;
#X connect 35 0 29 1;
#X connect 35 0 54 1;
#X connect 37 0 41 0;
#X connect 37 1 24 0;
#X connect 38 0 52 4;
#X connect 39 0 29 2;
#X connect 42 0 65 0;
#X connect 43 0 51 2;
#X connect 44 0 20 0;
#X connect 44 1 15 1;
#X connect 44 1 51 1;
#X connect 44 1 59 1;
#X connect 44 2 43 0;
#X connect 45 0 50 2;
#X connect 46 0 4 0;
#X connect 46 1 15 1;
#X connect 46 1 50 1;
#X connect 46 1 58 1;
#X connect 46 2 45 0;
#X connect 47 0 34 0;
#X connect 48 0 36 0;
#X connect 49 0 52 0;
#X connect 50 0 49 0;
#X connect 51 0 49 0;
#X connect 52 0 48 0;
#X connect 52 1 48 1;
#X connect 52 2 48 2;
#X connect 52 3 48 3;
#X connect 55 0 56 0;
#X connect 55 1 57 0;
#X connect 56 0 71 0;
#X connect 57 0 22 0;
#X connect 58 0 15 0;
#X connect 58 0 50 0;
#X connect 58 1 4 0;
#X connect 59 0 15 0;
#X connect 59 0 51 0;
#X connect 60 0 46 0;
#X connect 60 0 61 0;
#X connect 62 0 115 0;
#X connect 67 0 5 0;
#X connect 68 0 9 0;
#X connect 69 0 78 0;
#X connect 70 0 16 0;
#X connect 70 0 116 0;
#X connect 71 0 22 0;
#X connect 72 0 9 0;
#X connect 73 0 19 1;
#X connect 73 1 77 0;
#X connect 75 0 0 0;
#X connect 77 0 116 0;
#X connect 78 0 70 0;
#X connect 81 0 83 0;
#X connect 81 0 88 0;
#X connect 83 0 84 0;
#X connect 83 1 85 0;
#X connect 84 0 82 0;
#X connect 85 0 82 0;
#X connect 87 0 88 0;
#X connect 88 0 89 0;
#X connect 90 0 88 0;
#X connect 91 0 92 0;
#X connect 91 0 40 0;
#X connect 92 0 93 0;
#X connect 93 0 40 0;
#X connect 93 0 95 0;
#X connect 94 0 93 0;
#X connect 98 0 99 0;
#X connect 99 0 100 0;
#X connect 100 0 102 0;
#X connect 105 0 99 0;
#X connect 106 0 105 0;
#X connect 106 0 118 0;
#X connect 107 0 109 0;
#X connect 108 0 109 0;
#X connect 109 0 112 0;
#X connect 109 1 110 0;
#X connect 110 0 108 0;
#X connect 112 0 113 0;
#X connect 113 1 111 0;
#X connect 115 0 72 0;
#X connect 116 0 74 0;
#X connect 116 0 76 0;
#X connect 118 0 100 0;
#X coords 0 -1 1 1 800 200 2 10 10;
