#N canvas 433 364 1504 920 12;
#X declare -lib else;
#X declare -lib hcs;
#X obj 396 596 noteout 1;
#X obj 396 562 makenote 50 50;
#N canvas 102 665 940 433 set_original 0;
#X msg 22 41 60 64 67 72 76 67 72 76 60 64 67 72 76 67 72 76 60 62 69 74 77 69 74 77 60 62 69 74 77 69 74 77 59 62 67 74 77 67 74 77 59 62 67 74 77 67 74 77 60 64 67 72 76 67 72 76 60 64 67 72 76 67 72 76 60 64 69 76 81 69 76 81 60 64 69 76 81 69 76 81 60 62 66 69 74 66 69 74 60 62 66 69 74 66 69 74 59 62 67 74 79 67 74 79 59 62 67 74 79 67 74 79;
#X obj 22 14 loadbang;
#X obj 22 144 array set original;
#X obj 22 172 array define original 112;
#X connect 0 0 2 0;
#X connect 1 0 0 0;
#X restore 696 496 pd set_original;
#X obj 697 419 declare -lib else;
#N canvas 123 246 722 759 scramble_indexes 0;
#X obj 35 217 else/scramble;
#X obj 35 188 else/group 112;
#X msg 123 160 clear;
#X text 95 34 scramble indexes;
#X obj 35 34 inlet;
#X obj 35 268 array define \$0-scrambled_indexes 112;
#X obj 35 242 array set \$0-scrambled_indexes;
#X obj 35 136 else/loop 0 111;
#X obj 51 72 r init;
#X obj 137 77 bng 20 250 50 0 empty empty empty 0 -10 0 12 #fcfcfc #000000 #000000;
#X obj 35 110 t b b, f 13;
#X connect 0 0 6 0;
#X connect 1 0 0 0;
#X connect 2 0 1 0;
#X connect 4 0 10 0;
#X connect 7 0 1 0;
#X connect 8 0 10 0;
#X connect 9 0 10 0;
#X connect 10 0 7 0;
#X connect 10 1 2 0;
#X restore 17 783 pd scramble_indexes;
#X obj 17 753 bng 20 250 50 0 empty empty empty 0 -10 0 12 #fcfcfc #000000 #000000;
#N canvas 532 333 1340 779 random_note_generator 0;
#X obj 148 12 inlet;
#X obj 436 21 array define \$0-scale 7;
#X obj 436 96 array set \$0-scale;
#X msg 436 70 0 2 4 5 7 9 11;
#X obj 436 45 loadbang;
#X obj 148 125 random 50;
#X obj 148 150 t f f;
#X obj 148 175 % 7;
#X obj 148 200 tabread \$0-scale;
#X obj 265 169 div 7;
#X obj 265 225 * 12;
#X floatatom 155 300 5 0 0 0 - - - 0;
#X obj 148 245 +;
#X obj 148 270 + 24;
#X obj 148 325 outlet;
#X obj 148 37 random 100;
#X obj 148 62 moses 95;
#X obj 148 87 t b;
#X obj 220 99 t b;
#X obj 220 124 random 80;
#X connect 0 0 15 0;
#X connect 3 0 2 0;
#X connect 4 0 3 0;
#X connect 5 0 6 0;
#X connect 6 0 7 0;
#X connect 6 1 9 0;
#X connect 7 0 8 0;
#X connect 8 0 12 0;
#X connect 9 0 10 0;
#X connect 10 0 12 1;
#X connect 12 0 13 0;
#X connect 13 0 11 0;
#X connect 13 0 14 0;
#X connect 15 0 16 0;
#X connect 16 0 17 0;
#X connect 16 1 18 0;
#X connect 17 0 5 0;
#X connect 18 0 19 0;
#X connect 19 0 13 0;
#X restore 160 883 pd random_note_generator;
#N canvas 0 50 450 250 (subpatch) 0;
#X array visualizer 112 float 3;
#A 0 60 64 77 101 76 28 71 76 60 64 98 72 100 67 72 76 71 47 48 74 77 69 74 47 64 98 69 28 72 69 74 74 59 62 77 26 77 71 41 48 59 62 67 86 48 67 55 77 65 95 95 62 76 45 72 76 60 64 43 98 76 67 72 91 60 89 69 48 81 69 29 81 60 67 69 76 81 77 96 52 79 62 38 88 74 66 67 57 60 62 66 69 28 66 69 48 59 62 91 95 69 67 74 29 59 79 67 47 79 40 48 93;
#X coords 0 127 112 0 900 140 1 0 0;
#X restore 38 24 graph;
#X obj 128 344 else/count 0 111;
#X obj 57 195 tgl 20 0 empty empty play\ sequence 0 -10 0 12 #fcfcfc #000000 #000000 0 1;
#X msg 227 315 reset;
#X obj 128 619 sel 111;
#X obj 128 644 else/count 0 111;
#X obj 128 674 t f f;
#X obj 17 725 sel 111;
#X obj 451 521 array set visualizer;
#X obj 451 496 array get original;
#X obj 451 462 bng 20 250 50 0 empty empty empty 0 -10 0 12 #fcfcfc #000000 #000000;
#X obj 257 975 tabwrite visualizer;
#X obj 262 757 tgl 20 0 empty empty empty 0 -10 0 12 #fcfcfc #000000 #000000 0 1;
#X floatatom 193 669 5 0 0 0 - - - 0;
#X obj 160 709 tabread \$0-scrambled_indexes;
#X obj 160 783 else/router 2 0;
#X obj 335 883 tabread original;
#X floatatom 305 239 5 0 0 0 - - - 0;
#X obj 128 313 metro 220;
#X text 448 440 set starting sequence;
#X obj 551 312 s init;
#X obj 497 187 bng 100 250 50 0 empty empty INIT 0 -10 0 12 #fcfcfc #000000 #000000;
#X obj 480 470 r init;
#N canvas 212 283 1081 654 initialization 0;
#X obj 272 214 else/loop 0 111;
#X obj 272 470 oscformat note;
#X obj 272 181 bng 20 250 50 0 empty empty empty 0 -10 0 12 #fcfcfc #000000 #000000;
#X obj 727 269 receive redball_move;
#X obj 726 524 oscformat redball;
#X obj 727 317 unpack 0 0;
#X obj 339 323 tabread visualizer;
#X obj 339 352 ib.mtoy;
#X obj 794 342 ib.mtoy;
#X obj 58 209 r new_position_xy;
#X obj 272 495 s \$0-osc-message;
#X obj 726 550 s \$0-osc-message;
#X obj 504 60 cnv 20 200 160 empty empty OSC-CONNECTION 20 12 0 12 #e0e0e0 #404040 0;
#X msg 521 99 connect localhost 12345;
#X msg 534 128 disconnect;
#X obj 525 186 netsend -b -u;
#X obj 557 155 r \$0-osc-message;
#X obj 332 156 oscformat setup;
#X msg 332 129 112;
#X obj 283 52 t b b;
#X obj 283 77 delay 500;
#X obj 283 102 t b b;
#X obj 283 27 r \$0-oscinit;
#X obj 332 184 s \$0-osc-message;
#X text 374 441 x y_start y_end active;
#X obj 272 269 t f f, f 10;
#X obj 89 290 ib.mtoy;
#X obj 121 268 ib.mtoy;
#X text 740 297 x_end y_end;
#X obj 727 348 t f f;
#X text 673 377 x_start;
#X obj 727 403 t f f;
#X obj 727 497 pack 0 0 0 0;
#X obj 758 430 tabread visualizer;
#X obj 757 463 ib.mtoy;
#X obj 727 376 expr if($f1 == 0 \, 111 \, $f1 - 1);
#X obj 58 234 unpack 0 0 0 0;
#X obj 58 329 pack 0 0 0 0, f 14;
#X msg 272 442 \$1 \$2 \$3 0 \$4;
#X obj 272 412 pack 0 0 0 0, f 15;
#X connect 0 0 25 0;
#X connect 1 0 10 0;
#X connect 2 0 0 0;
#X connect 3 0 5 0;
#X connect 4 0 11 0;
#X connect 5 0 29 0;
#X connect 5 1 8 0;
#X connect 6 0 7 0;
#X connect 7 0 39 2;
#X connect 8 0 32 3;
#X connect 9 0 36 0;
#X connect 13 0 15 0;
#X connect 14 0 15 0;
#X connect 16 0 15 0;
#X connect 17 0 23 0;
#X connect 18 0 17 0;
#X connect 19 0 20 0;
#X connect 19 1 13 0;
#X connect 20 0 21 0;
#X connect 21 0 2 0;
#X connect 21 1 18 0;
#X connect 22 0 19 0;
#X connect 25 0 39 0;
#X connect 25 1 6 0;
#X connect 26 0 37 1;
#X connect 27 0 37 2;
#X connect 29 0 35 0;
#X connect 29 1 32 2;
#X connect 31 0 32 0;
#X connect 31 1 33 0;
#X connect 32 0 4 0;
#X connect 33 0 34 0;
#X connect 34 0 32 1;
#X connect 35 0 31 0;
#X connect 36 0 37 0;
#X connect 36 1 26 0;
#X connect 36 2 27 0;
#X connect 36 3 37 3;
#X connect 37 0 38 0;
#X connect 38 0 1 0;
#X connect 39 0 38 0;
#X restore 697 471 pd initialization;
#X obj 221 583 pack 0 0;
#X obj 207 559 pipe f f 500;
#X obj 697 445 declare -lib hcs;
#X obj 221 609 send redball_move;
#X obj 128 369 t f f f;
#X floatatom 603 218 5 0 0 1 LATENZA - - 0;
#X obj 247 435 tabread visualizer;
#X obj 227 221 bng 20 250 50 0 empty empty empty 0 -10 0 12 #fcfcfc #000000 #000000;
#X obj 247 460 int;
#X obj 160 1149 s new_position_xy;
#X obj 497 292 t b b;
#X obj 255 1060 r \$0-latency;
#X obj 288 535 r \$0-latency;
#X obj 603 242 s \$0-latency;
#X obj 497 339 s \$0-oscinit;
#X obj 257 377 nbx 3 25 -1e+37 1e+37 0 0 empty empty CURRENT-INDEX 0 -10 0 12 #00ff04 #000000 #000000 0 256;
#X obj 542 858 tabread visualizer;
#X obj 335 802 t f f f, f 30;
#X text 655 898 y_end x y_start;
#X obj 227 930 tabread visualizer;
#X obj 160 821 t b f f, f 10;
#X obj 227 189 r init;
#X obj 160 1124 pack 0 0 0 0, f 16;
#X msg 160 1022 \$2 \$3 \$1 \$4;
#X obj 160 976 pack 0 0 0 1;
#X obj 405 974 pack 0 0 0 0;
#X obj 160 1093 pipe f f f f 500;
#X obj 539 693 keyup;
#X obj 539 718 sel 32;
#X text 532 674 mettere pulsante midi;
#X obj 603 187 else/initmess 500;
#X floatatom 745 262 5 0 0 0 - \$0-latency - 0;
#N canvas 775 509 903 547 MIDI_SEND 0;
#X obj 35 19 inlet;
#X obj 35 69 noteout 1;
#X obj 35 44 makenote 50 250;
#X obj 218 215 ctlout 64 1;
#X msg 270 165 127;
#X msg 218 159 0;
#X obj 270 126 delay 200;
#X obj 218 54 tgl 20 0 empty empty empty 0 -10 0 12 #fcfcfc #000000 #000000 0 1;
#X obj 218 90 metro 24000;
#X obj 242 29 r init;
#X obj 242 54 f 1;
#X connect 0 0 2 0;
#X connect 2 0 1 0;
#X connect 2 1 1 1;
#X connect 4 0 3 0;
#X connect 5 0 3 0;
#X connect 6 0 4 0;
#X connect 7 0 8 0;
#X connect 8 0 5 0;
#X connect 8 0 6 0;
#X connect 9 0 10 0;
#X connect 10 0 7 0;
#X restore 259 499 pd MIDI_SEND;
#X obj 57 268 pipe 5000;
#X obj 57 220 sel 1 0;
#X obj 57 245 f 1;
#X obj 92 245 f 0;
#X connect 1 0 0 0;
#X connect 1 1 0 1;
#X connect 5 0 4 0;
#X connect 6 0 18 0;
#X connect 6 0 55 0;
#X connect 8 0 35 0;
#X connect 8 0 46 0;
#X connect 9 0 65 0;
#X connect 10 0 8 0;
#X connect 10 0 12 0;
#X connect 11 0 12 0;
#X connect 12 0 13 0;
#X connect 12 0 20 0;
#X connect 13 0 14 0;
#X connect 13 1 21 0;
#X connect 14 0 5 0;
#X connect 14 0 19 0;
#X connect 16 0 15 0;
#X connect 17 0 16 0;
#X connect 19 0 22 1;
#X connect 21 0 22 0;
#X connect 22 0 51 0;
#X connect 22 1 48 0;
#X connect 23 0 18 0;
#X connect 23 0 56 0;
#X connect 24 0 25 1;
#X connect 25 0 8 0;
#X connect 28 0 41 0;
#X connect 29 0 16 0;
#X connect 31 0 34 0;
#X connect 32 0 31 0;
#X connect 32 1 31 1;
#X connect 35 0 11 0;
#X connect 35 1 32 0;
#X connect 35 2 37 0;
#X connect 36 0 44 0;
#X connect 37 0 39 0;
#X connect 38 0 10 0;
#X connect 39 0 32 1;
#X connect 39 0 63 0;
#X connect 41 0 45 0;
#X connect 41 1 27 0;
#X connect 42 0 57 4;
#X connect 43 0 32 2;
#X connect 47 0 56 2;
#X connect 48 0 23 0;
#X connect 48 1 18 1;
#X connect 48 1 56 1;
#X connect 48 2 47 0;
#X connect 50 0 55 2;
#X connect 51 0 6 0;
#X connect 51 1 18 1;
#X connect 51 1 55 1;
#X connect 51 2 50 0;
#X connect 52 0 38 0;
#X connect 53 0 40 0;
#X connect 54 0 57 0;
#X connect 55 0 54 0;
#X connect 56 0 54 0;
#X connect 57 0 53 0;
#X connect 57 1 53 1;
#X connect 57 2 53 2;
#X connect 57 3 53 3;
#X connect 58 0 59 0;
#X connect 59 0 12 0;
#X connect 61 0 36 0;
#X connect 64 0 25 0;
#X connect 65 0 66 0;
#X connect 65 1 67 0;
#X connect 66 0 64 0;
#X connect 67 0 25 0;
